<svg width="50" height="21" viewBox="0 0 50 21" fill="none" xmlns="http://www.w3.org/2000/svg">
<g clip-path="url(#clip0_307_1036)">
<g clip-path="url(#clip1_307_1036)">
<g clip-path="url(#clip2_307_1036)">
<mask id="mask0_307_1036" style="mask-type:luminance" maskUnits="userSpaceOnUse" x="0" y="0" width="50" height="21">
<path d="M49.5 0.259766H0.5V20.2598H49.5V0.259766Z" fill="white"/>
</mask>
<g mask="url(#mask0_307_1036)">
<path d="M9.45323 2.83827C8.87894 3.51381 7.96009 4.04664 7.04123 3.97052C6.92637 3.05711 7.37623 2.0866 7.90266 1.48717C8.47694 0.792592 9.48194 0.297825 10.2955 0.259766C10.3912 1.21124 10.0179 2.14369 9.45323 2.83827ZM10.2859 4.1513C8.95551 4.07518 7.81651 4.90297 7.1848 4.90297C6.54352 4.90297 5.5768 4.18936 4.52395 4.20839C3.15524 4.22742 1.88224 4.99811 1.18353 6.22552C-0.252185 8.68032 0.810242 12.315 2.1981 14.3131C2.87767 15.3026 3.69124 16.3873 4.76323 16.3492C5.7778 16.3112 6.1798 15.6927 7.40494 15.6927C8.63966 15.6927 8.9938 16.3492 10.0658 16.3302C11.1761 16.3112 11.8748 15.3407 12.5544 14.3511C13.3296 13.2284 13.6455 12.1342 13.6646 12.0771C13.6455 12.0581 11.5206 11.2493 11.5015 8.81353C11.4824 6.77737 13.1765 5.80687 13.2531 5.74978C12.2959 4.3416 10.8028 4.18936 10.2859 4.1513ZM17.9718 1.39202V16.2255H20.2881V11.1542H23.4945C26.4233 11.1542 28.4812 9.15606 28.4812 6.26358C28.4812 3.37109 26.4616 1.39202 23.5711 1.39202H17.9718ZM20.2881 3.33303H22.9585C24.9685 3.33303 26.1171 4.39869 26.1171 6.27309C26.1171 8.1475 24.9685 9.22266 22.9489 9.22266H20.2881V3.33303ZM32.7118 16.3397C34.1666 16.3397 35.5162 15.6071 36.1287 14.4463H36.1766V16.2255H38.3206V8.84207C38.3206 6.70125 36.5977 5.32162 33.9465 5.32162C31.4866 5.32162 29.668 6.72028 29.601 8.64226H31.6876C31.8599 7.72885 32.7118 7.12942 33.8795 7.12942C35.296 7.12942 36.0905 7.78594 36.0905 8.99431V9.81258L33.1999 9.98384C30.5103 10.1456 29.0555 11.2398 29.0555 13.1428C29.0555 15.0647 30.5582 16.3397 32.7118 16.3397ZM33.3339 14.5795C32.0992 14.5795 31.3143 13.9896 31.3143 13.0857C31.3143 12.1532 32.0705 11.6109 33.5157 11.5253L36.0905 11.3635V12.2008C36.0905 13.59 34.9036 14.5795 33.3339 14.5795ZM41.1824 20.2598C43.4413 20.2598 44.5037 19.4035 45.4322 16.8059L49.5 5.46434H47.1454L44.4176 14.2275H44.3697L41.6419 5.46434H39.2203L43.1446 16.2636L42.934 16.9201C42.5799 18.0334 42.0056 18.4615 40.9814 18.4615C40.7996 18.4615 40.4454 18.4425 40.3019 18.4235V20.2027C40.4359 20.2408 41.0102 20.2598 41.1824 20.2598Z" fill="white"/>
</g>
</g>
</g>
</g>
<defs>
<clipPath id="clip0_307_1036">
<rect width="50" height="20" fill="white" transform="translate(0 0.259766)"/>
</clipPath>
<clipPath id="clip1_307_1036">
<rect width="50" height="20" fill="white" transform="translate(0 0.259766)"/>
</clipPath>
<clipPath id="clip2_307_1036">
<rect width="50" height="20" fill="white" transform="translate(0 0.259766)"/>
</clipPath>
</defs>
</svg>
