<svg width="37" height="20" viewBox="0 0 37 20" fill="none" xmlns="http://www.w3.org/2000/svg">
<g clip-path="url(#clip0_892_815)">
<mask id="mask0_892_815" style="mask-type:luminance" maskUnits="userSpaceOnUse" x="0" y="0" width="37" height="20">
<path d="M36.5 0H0.5V20H36.5V0Z" fill="white"/>
</mask>
<g mask="url(#mask0_892_815)">
<path d="M20.2007 12.4191C18.8649 17.7763 13.4384 21.0365 8.08003 19.7006C2.72382 18.365 -0.536842 12.9388 0.799551 7.58199C2.13469 2.22423 7.56121 -1.03637 12.9181 0.299246C18.2761 1.63486 21.5364 7.06169 20.2007 12.4191Z" fill="#F7931A"/>
<path d="M15.4739 8.22627C15.682 6.86027 14.623 6.12592 13.1749 5.63606L13.6446 3.78565L12.4978 3.50494L12.0405 5.30659C11.739 5.2328 11.4293 5.16319 11.1216 5.09422L11.5822 3.28071L10.436 3L9.96593 4.84976C9.7164 4.79394 9.47139 4.73877 9.23357 4.68069L9.23491 4.67492L7.65327 4.28707L7.34818 5.49009C7.34818 5.49009 8.19912 5.68161 8.18111 5.69348C8.64562 5.80737 8.72954 6.10924 8.71553 6.34856L8.18051 8.45656C8.21247 8.46457 8.25398 8.47614 8.29972 8.49413C8.26147 8.48481 8.22062 8.47454 8.17851 8.46457L7.42853 11.4176C7.3717 11.5562 7.22765 11.7641 6.90296 11.6852C6.91439 11.7015 6.06935 11.4808 6.06935 11.4808L5.5 12.7701L6.99246 13.1355C7.27011 13.2039 7.54221 13.2754 7.81006 13.3428L7.33544 15.2143L8.48097 15.495L8.95105 13.6433C9.26397 13.7268 9.56776 13.8038 9.86504 13.8762L9.39659 15.7193L10.5434 16L11.0181 14.1319C12.9737 14.4954 14.4443 14.3488 15.0633 12.6116C15.5621 11.213 15.0385 10.4061 14.0095 9.88C14.7588 9.71029 15.3233 9.2262 15.4739 8.22627ZM12.8535 11.8349C12.4991 13.2337 10.1012 12.4775 9.32372 12.2879L9.95355 9.80844C10.731 9.99897 13.2239 10.3763 12.8535 11.8349ZM13.2083 8.20603C12.8848 9.47833 10.889 8.83195 10.2416 8.67345L10.8126 6.42459C11.46 6.58307 13.545 6.87883 13.2083 8.20603Z" fill="white"/>
<path d="M26.5 20C32.0228 20 36.5 15.5228 36.5 10C36.5 4.47715 32.0228 0 26.5 0C20.9772 0 16.5 4.47715 16.5 10C16.5 15.5228 20.9772 20 26.5 20Z" fill="#7B1AF7"/>
<path d="M21.7604 9.79168L28.2404 4.07369C28.5228 3.88852 28.7919 4.07369 28.6196 4.39136L26.5515 8.55632H30.2396C30.2396 8.55632 30.8255 8.55632 30.2396 9.05046L23.863 14.8037C23.4149 15.192 23.1047 14.9802 23.4149 14.3802L25.414 10.3211H21.7604C21.7604 10.3211 21.1745 10.3211 21.7604 9.79168Z" fill="white"/>
</g>
</g>
<defs>
<clipPath id="clip0_892_815">
<rect width="36" height="20" fill="white" transform="translate(0.5)"/>
</clipPath>
</defs>
</svg>
