<svg width="38" height="39" viewBox="0 0 38 39" fill="none" xmlns="http://www.w3.org/2000/svg">
<g clip-path="url(#clip0_307_1028)">
<g clip-path="url(#clip1_307_1028)">
<g clip-path="url(#clip2_307_1028)">
<path d="M33 7.75977H5C2.51472 7.75977 0.5 9.77448 0.5 12.2598V26.2598C0.5 28.745 2.51472 30.7598 5 30.7598H33C35.4853 30.7598 37.5 28.745 37.5 26.2598V12.2598C37.5 9.77448 35.4853 7.75977 33 7.75977Z" fill="white"/>
<path d="M33 8.25977C34.0609 8.25977 35.0783 8.68119 35.8284 9.43134C36.5786 10.1815 37 11.1989 37 12.2598V26.2598C37 27.3206 36.5786 28.338 35.8284 29.0882C35.0783 29.8383 34.0609 30.2598 33 30.2598H5C3.93913 30.2598 2.92172 29.8383 2.17157 29.0882C1.42143 28.338 1 27.3206 1 26.2598V12.2598C1 11.1989 1.42143 10.1815 2.17157 9.43134C2.92172 8.68119 3.93913 8.25977 5 8.25977H33ZM33 7.25977H5C3.67392 7.25977 2.40215 7.78655 1.46447 8.72423C0.526784 9.66191 0 10.9337 0 12.2598L0 26.2598C0 27.5858 0.526784 28.8576 1.46447 29.7953C2.40215 30.733 3.67392 31.2598 5 31.2598H33C34.3261 31.2598 35.5979 30.733 36.5355 29.7953C37.4732 28.8576 38 27.5858 38 26.2598V12.2598C38 10.9337 37.4732 9.66191 36.5355 8.72423C35.5979 7.78655 34.3261 7.25977 33 7.25977Z" fill="#F7F7F7"/>
<path d="M27.31 19.26C27.3091 20.2241 27.0148 21.1651 26.4662 21.9579C25.9177 22.7508 25.1408 23.3579 24.239 23.6987C23.3371 24.0395 22.3529 24.0978 21.4171 23.8658C20.4813 23.6338 19.6383 23.1226 19 22.4C19.7663 21.5335 20.1892 20.4167 20.1892 19.26C20.1892 18.1033 19.7663 16.9865 19 16.12C19.6383 15.3974 20.4813 14.8862 21.4171 14.6542C22.3529 14.4222 23.3371 14.4805 24.239 14.8213C25.1408 15.1621 25.9177 15.7692 26.4662 16.562C27.0148 17.3549 27.3091 18.2959 27.31 19.26Z" fill="#F79E1B"/>
<path d="M19.0001 22.4001C19.6573 22.4001 20.1901 20.9943 20.1901 19.2601C20.1901 17.5259 19.6573 16.1201 19.0001 16.1201C18.3428 16.1201 17.8101 17.5259 17.8101 19.2601C17.8101 20.9943 18.3428 22.4001 19.0001 22.4001Z" fill="#FF5F00"/>
<path d="M17.81 19.2598C17.8121 20.4162 18.2351 21.5324 19 22.3998C18.3621 23.1239 17.5187 23.6365 16.5822 23.8694C15.6457 24.1023 14.6605 24.0444 13.7577 23.7034C12.8549 23.3625 12.0774 22.7546 11.5286 21.9608C10.9799 21.1669 10.6859 20.2248 10.6859 19.2598C10.6859 18.2947 10.9799 17.3526 11.5286 16.5588C12.0774 15.7649 12.8549 15.1571 13.7577 14.8161C14.6605 14.4752 15.6457 14.4173 16.5822 14.6502C17.5187 14.883 18.3621 15.3957 19 16.1198C18.2351 16.9871 17.8121 18.1033 17.81 19.2598Z" fill="#EB001B"/>
</g>
</g>
</g>
<defs>
<clipPath id="clip0_307_1028">
<rect width="38" height="38" fill="white" transform="translate(0 0.259766)"/>
</clipPath>
<clipPath id="clip1_307_1028">
<rect width="38" height="38" fill="white" transform="translate(0 0.259766)"/>
</clipPath>
<clipPath id="clip2_307_1028">
<rect width="38" height="38" fill="white" transform="translate(0 0.259766)"/>
</clipPath>
</defs>
</svg>
