<svg width="35" height="20" viewBox="0 0 35 20" fill="none" xmlns="http://www.w3.org/2000/svg">
<rect width="34" height="20" transform="translate(0.5)" fill="white"/>
<g clip-path="url(#clip0_892_825)">
<path d="M34.5 13H0.5V20H34.5V13Z" fill="#D4AA00"/>
<path d="M34.5 0H0.5V7H34.5V0Z" fill="#000080"/>
<path fill-rule="evenodd" clip-rule="evenodd" d="M23.8393 10.4158L23.8416 10.435L23.0183 10.4376L23.7484 9.11049L23.8393 10.4158ZM15.808 12.7451C15.7585 12.6863 15.7585 12.5796 15.8083 12.4251L17.4942 7.35272L17.5923 7.23759L17.5902 7.21847L15.7496 7.21338C15.7496 7.21921 15.7465 7.22281 15.7401 7.22393C15.7599 7.35582 15.7437 7.49814 15.6921 7.65089L14.1628 12.3701C14.1058 12.5456 14.0338 12.6714 13.9471 12.7467L15.808 12.7451ZM20.3866 12.2632C21.1522 11.4051 21.0986 10.6082 20.225 9.87288C20.1855 9.83985 19.9322 9.66102 19.4649 9.33713C19.0418 9.04355 18.8578 8.88335 18.8502 8.63646C18.8404 8.29432 19.2538 8.018 19.9613 8.13573C20.3532 8.20118 20.7358 8.40447 21.1098 8.74587L21.152 8.74152L21.3552 7.57191C21.0012 7.31422 20.6744 7.1493 20.3763 7.07739C19.1989 6.79374 17.2012 7.26119 17.2518 8.95575C17.269 9.52305 17.5579 9.94603 18.1196 10.2248L18.2627 10.2956C18.6933 10.5092 19.3095 10.8413 19.2917 11.3573C19.2664 12.0866 17.8017 11.9616 16.9929 11.3326L16.6498 11.0436L16.6256 12.2346C16.6209 12.4116 17.0565 12.6604 17.2976 12.7547C18.3436 13.1629 19.6378 13.1022 20.3866 12.2632ZM25.5 12.7349L25.4577 12.3814L25.1441 7.22244L23.529 7.22456L23.5096 7.36539L20.4741 12.7491L21.9176 12.7445C21.8689 12.6254 21.8628 12.5171 21.8993 12.4199L22.5061 11.3658L23.9432 11.3398C23.943 11.3654 23.9519 11.6781 23.9708 12.2782C23.9777 12.4827 23.9671 12.6373 23.939 12.7417L25.5 12.7349ZM13.9054 7.24007L13.9372 7.42052L11.8301 10.8818C11.8221 10.8752 11.8128 10.8731 11.8023 10.8748L11.789 7.25225H9.5C9.52673 7.28106 9.60013 7.34626 9.72007 7.44722C9.84991 7.55626 9.95004 7.66629 10.0205 7.77632C10.1374 7.9595 10.196 8.08767 10.1963 8.16044L10.2092 12.7687L11.8688 12.7815L15.4674 7.24318L13.9054 7.24007Z" fill="#000080"/>
</g>
<defs>
<clipPath id="clip0_892_825">
<rect width="34" height="20" fill="white" transform="translate(0.5)"/>
</clipPath>
</defs>
</svg>
