<svg width="27" height="20" viewBox="0 0 27 20" fill="none" xmlns="http://www.w3.org/2000/svg">
<g clip-path="url(#clip0_892_833)">
<path d="M4.29343 17.2166C4.22591 17.1479 4.14579 17.0939 4.05775 17.0575C3.96238 17.0187 3.86065 16.9992 3.75813 17.0001C3.69843 17.0005 3.63886 17.0059 3.58 17.0161C3.51717 17.0261 3.45579 17.0441 3.3973 17.0697C3.33681 17.0969 3.28049 17.1331 3.23013 17.177C3.17378 17.2252 3.12642 17.2836 3.09037 17.3493C3.02787 17.242 2.9386 17.1539 2.83186 17.0942C2.71722 17.0303 2.58856 16.9979 2.45824 17.0001C2.40926 17.0005 2.36038 17.0049 2.31208 17.0133C2.26067 17.023 2.21043 17.0385 2.16227 17.0594C2.11125 17.0818 2.06358 17.1116 2.02068 17.1479C1.97276 17.1881 1.93116 17.2357 1.89736 17.289V17.0509H1.5V18.9981H1.90102V17.9186C1.89985 17.8434 1.91288 17.7686 1.93938 17.6984C1.96267 17.638 1.99745 17.5829 2.04169 17.5365C2.08463 17.4946 2.13568 17.4626 2.19151 17.4424C2.24983 17.4195 2.31179 17.4081 2.3742 17.4086C2.49284 17.4016 2.60822 17.45 2.68844 17.5403C2.76873 17.6477 2.80834 17.7815 2.79988 17.9168V19H3.2009V17.9186C3.19974 17.8434 3.21277 17.7686 3.23927 17.6984C3.26255 17.638 3.29734 17.5829 3.34158 17.5365C3.38451 17.4946 3.43557 17.4626 3.49139 17.4424C3.54975 17.4197 3.61168 17.4082 3.67409 17.4086C3.79243 17.4018 3.90747 17.4501 3.98741 17.5403C4.06802 17.6476 4.10796 17.7814 4.09977 17.9168V19H4.49987V17.7765C4.50174 17.6682 4.48312 17.5604 4.44506 17.4594C4.41082 17.3688 4.35925 17.2862 4.29343 17.2166Z" fill="white"/>
<path d="M7.07678 17.2772C7.0089 17.1935 6.92327 17.1254 6.82585 17.0776C6.71484 17.0235 6.59203 16.9969 6.46817 17.0003C6.20932 16.9976 5.96077 17.0998 5.78092 17.2828C5.69164 17.3738 5.62163 17.4814 5.57492 17.5993C5.47503 17.8587 5.47503 18.145 5.57492 18.4044C5.6214 18.5223 5.69144 18.63 5.78092 18.7209C5.96186 18.903 6.2111 19.0038 6.47005 18.9997C6.59371 19.0032 6.7164 18.9773 6.82772 18.9242C6.92542 18.8756 7.01108 18.8065 7.07866 18.7218V18.95H7.5V17.0463H7.07678V17.2772ZM7.06087 18.2406C7.03442 18.3122 6.99367 18.3779 6.94102 18.4338C6.88838 18.4888 6.82459 18.5324 6.75375 18.5617C6.67845 18.5938 6.59706 18.6098 6.51499 18.6086C6.4306 18.61 6.34691 18.5933 6.26967 18.5599C6.19852 18.5295 6.1347 18.4846 6.08241 18.4283C6.03172 18.3718 5.99262 18.3062 5.96724 18.2351C5.94003 18.1591 5.92641 18.0791 5.92698 17.9986C5.92626 17.9181 5.93988 17.838 5.96724 17.7621C5.99262 17.6908 6.03171 17.6249 6.08241 17.568C6.13501 17.5122 6.19876 17.4678 6.26967 17.4373C6.34677 17.4035 6.43056 17.3868 6.51499 17.3886C6.59706 17.3874 6.67845 17.4034 6.75375 17.4355C6.82478 17.4644 6.88864 17.5081 6.94102 17.5634C6.99347 17.6191 7.0342 17.6845 7.06087 17.7557C7.08955 17.8335 7.10382 17.9158 7.103 17.9986C7.10389 18.0811 7.08962 18.1631 7.06087 18.2406Z" fill="white"/>
<path d="M9.29208 18.0018C9.12168 17.8992 8.92279 17.8356 8.71473 17.8172L8.48117 17.7877C8.42988 17.7803 8.38076 17.7729 8.33492 17.7646C8.29409 17.757 8.25451 17.7452 8.21705 17.7295C8.18606 17.7161 8.15916 17.6968 8.13847 17.6732C8.11809 17.649 8.10773 17.6198 8.109 17.5901C8.1071 17.5225 8.14896 17.4595 8.21814 17.4257C8.31331 17.379 8.42267 17.3572 8.53247 17.363C8.60238 17.3626 8.67218 17.3679 8.74093 17.3787C8.80658 17.3885 8.87146 17.4018 8.9352 17.4184C8.99218 17.4327 9.04796 17.4503 9.10218 17.471C9.14587 17.4875 9.18849 17.506 9.22987 17.5264L9.44161 17.2014C9.31405 17.134 9.17487 17.0839 9.02906 17.0527C8.86509 17.017 8.69634 16.9993 8.52701 17.0001C8.39576 16.9985 8.26492 17.0128 8.13847 17.0426C8.03255 17.0675 7.933 17.1088 7.84488 17.1645C7.76578 17.215 7.70215 17.2809 7.65935 17.3565C7.61458 17.4364 7.59217 17.5239 7.59386 17.6122C7.58984 17.7538 7.66116 17.8893 7.78813 17.9815C7.95377 18.0884 8.15235 18.1525 8.36003 18.1662L8.59577 18.192C8.69995 18.1998 8.80107 18.2259 8.89263 18.2687C8.9503 18.2962 8.98644 18.3475 8.98758 18.4035C8.98659 18.4768 8.93613 18.5431 8.85771 18.5743C8.73782 18.6219 8.60577 18.6435 8.47353 18.637C8.39022 18.6375 8.307 18.6323 8.22469 18.6213C8.15645 18.6116 8.08928 18.5971 8.02387 18.578C7.96754 18.5616 7.91311 18.5409 7.86125 18.5161C7.81507 18.4935 7.7706 18.4686 7.7281 18.4413L7.5 18.7543C7.579 18.805 7.66515 18.8472 7.75648 18.8799C7.8419 18.911 7.93025 18.936 8.0206 18.9546C8.10116 18.9723 8.18329 18.9843 8.26617 18.9906C8.34256 18.9971 8.41023 18.9999 8.46917 18.9999C8.6165 19.0015 8.76341 18.986 8.90573 18.9537C9.02336 18.9286 9.1344 18.885 9.23315 18.8254C9.31504 18.7748 9.38222 18.7092 9.4296 18.6334C9.47674 18.5554 9.50071 18.4689 9.49945 18.3813C9.50733 18.2338 9.42999 18.0923 9.29208 18.0018Z" fill="white"/>
<path d="M13.2348 17.2775C13.1492 17.1896 13.0441 17.1197 12.9266 17.0727C12.8005 17.0231 12.6646 16.9984 12.5276 17.0001C12.3847 16.9987 12.243 17.0234 12.1106 17.0727C11.9881 17.1192 11.8777 17.189 11.7864 17.2775C11.6935 17.3686 11.6216 17.4761 11.575 17.5935C11.5237 17.7239 11.4984 17.8618 11.5001 18.0005C11.4978 18.1405 11.5238 18.2798 11.577 18.4111C11.6253 18.5287 11.6993 18.636 11.7944 18.7262C11.8892 18.8143 12.0031 18.8831 12.1286 18.9283C12.2646 18.9772 12.4095 19.0015 12.5555 18.9999C12.7068 19.0005 12.8574 18.9803 13.0024 18.9402C13.1496 18.8974 13.2855 18.8267 13.4014 18.7326L13.1779 18.4368C13.0922 18.5001 12.9959 18.5501 12.8926 18.5847C12.793 18.6188 12.6877 18.6365 12.5814 18.6371C12.5099 18.6373 12.4386 18.628 12.37 18.6095C12.3037 18.5916 12.2418 18.5623 12.1874 18.5232C12.1307 18.4819 12.083 18.4311 12.0468 18.3734C12.0054 18.3052 11.9783 18.2304 11.967 18.153H13.4921C13.4921 18.1291 13.4971 18.1043 13.4991 18.0776C13.5011 18.051 13.4991 18.0243 13.4991 17.9986C13.5012 17.8604 13.4765 17.7229 13.4263 17.5926C13.3849 17.4773 13.3198 17.3703 13.2348 17.2775ZM11.975 17.8379C11.9857 17.7722 12.0062 17.7082 12.0358 17.6477C12.0631 17.5928 12.1005 17.5428 12.1465 17.4998C12.1923 17.4574 12.2474 17.4245 12.3081 17.4034C12.3766 17.3796 12.4494 17.368 12.5226 17.3694C12.6529 17.3648 12.7796 17.4093 12.8737 17.4925C12.9708 17.587 13.0315 17.7084 13.0463 17.8379H11.975Z" fill="white"/>
<path d="M20.0777 17.276C19.9315 17.0939 19.7053 16.9915 19.4691 17.0006C19.2103 16.9979 18.9617 17.0999 18.7819 17.2825C18.6923 17.3734 18.622 17.4807 18.5749 17.5984C18.475 17.8573 18.475 18.143 18.5749 18.4019C18.6218 18.5197 18.6921 18.6271 18.7819 18.7178C18.869 18.8065 18.9734 18.877 19.089 18.9253C19.2091 18.9755 19.3385 19.0009 19.4691 18.9997C19.5928 19.0031 19.7154 18.9772 19.8268 18.9244C19.9244 18.8757 20.01 18.8067 20.0777 18.7224V18.9501H20.5V17.0456H20.0777V17.276ZM20.0609 18.2375C20.0348 18.3089 19.9943 18.3745 19.942 18.4304C19.8892 18.4852 19.8255 18.5287 19.7547 18.558C19.6797 18.59 19.5986 18.6059 19.5169 18.6048C19.4322 18.6061 19.3482 18.5895 19.2706 18.5562C19.1993 18.5262 19.1354 18.4814 19.0833 18.4248C19.0327 18.3684 18.9936 18.303 18.9682 18.232C18.941 18.1562 18.9273 18.0764 18.9279 17.996C18.9272 17.9156 18.9408 17.8358 18.9682 17.76C18.9936 17.6888 19.0327 17.623 19.0833 17.5662C19.1357 17.5103 19.1995 17.4658 19.2706 17.4358C19.4255 17.3722 19.5998 17.3722 19.7547 17.4358C19.8257 17.4648 19.8895 17.5083 19.942 17.5635C19.9941 17.6191 20.0345 17.6844 20.0609 17.7554C20.0903 17.8329 20.1049 17.9151 20.1039 17.9978C20.1036 18.0799 20.0877 18.1611 20.0571 18.2375H20.0609Z" fill="white"/>
<path d="M11.1518 18.4902C11.0713 18.519 10.986 18.5342 10.8998 18.535C10.8486 18.5356 10.7977 18.5275 10.7497 18.511C10.705 18.495 10.6649 18.4696 10.6325 18.4368C10.5956 18.399 10.5676 18.3544 10.5504 18.3059C10.5288 18.2436 10.5185 18.1783 10.5199 18.1128V17.1311H11.3699V16.6828H10.5199V16H9.98886V16.6828H9.5V17.1311H9.98417V18.1226C9.98417 18.4226 10.0604 18.6429 10.2186 18.7858C10.3924 18.935 10.624 19.0118 10.8599 18.9985C11.0014 19.0005 11.142 18.9783 11.2749 18.9331C11.3525 18.9053 11.4277 18.8721 11.5 18.8338L11.3195 18.4215C11.2651 18.4474 11.2091 18.4704 11.1518 18.4902Z" fill="white"/>
<path d="M15.2728 17.0001C15.1822 16.9983 15.0924 17.0208 15.0096 17.066C14.9288 17.1251 14.8612 17.208 14.8129 17.3072V17.051H14.5V19H14.8168V17.9308C14.8156 17.8556 14.8252 17.7806 14.8451 17.7094C14.8612 17.6487 14.8872 17.5926 14.9216 17.5446C14.9541 17.4998 14.9947 17.4649 15.0402 17.4428C15.0888 17.4189 15.1408 17.407 15.1932 17.408C15.2387 17.4086 15.2841 17.4149 15.3286 17.4268C15.3523 17.4321 15.3755 17.4397 15.3982 17.4494L15.5 17.0425C15.4724 17.0318 15.4443 17.023 15.4158 17.0161C15.3686 17.0061 15.3207 17.0007 15.2728 17.0001Z" fill="white"/>
<path d="M21.2735 17.0001C21.1829 16.9983 21.0931 17.0208 21.0103 17.066C20.9294 17.1248 20.8618 17.2078 20.8137 17.3072V17.051H20.5V19H20.8175V17.9308C20.8166 17.8556 20.8259 17.7808 20.8451 17.7094C20.8616 17.6489 20.8876 17.5928 20.9216 17.5446C20.9541 17.4998 20.9947 17.4649 21.0402 17.4429C21.0888 17.4189 21.1408 17.4071 21.1932 17.408C21.2387 17.4086 21.2841 17.4149 21.3286 17.4268C21.3522 17.4323 21.3755 17.4398 21.3982 17.4494L21.5 17.0425C21.4721 17.0317 21.4438 17.0229 21.4151 17.0161C21.3683 17.0061 21.321 17.0008 21.2735 17.0001Z" fill="white"/>
<path d="M24.0777 16V17.1026C23.9315 16.9022 23.7053 16.7895 23.4691 16.7994C23.21 16.7969 22.9613 16.909 22.7809 17.1097C22.692 17.21 22.622 17.3281 22.5749 17.4574C22.475 17.7423 22.475 18.0568 22.5749 18.3417C22.6218 18.4711 22.6918 18.5892 22.7809 18.6894C22.9613 18.8901 23.21 19.0023 23.4691 18.9997C23.5928 19.0034 23.7154 18.9749 23.8268 18.9168C23.9244 18.8632 24.01 18.7873 24.0777 18.6945V18.9451H24.5V16H24.0777ZM24.0609 18.1608C24.0348 18.2394 23.9943 18.3116 23.942 18.3731C23.8892 18.4334 23.8255 18.4813 23.7547 18.5135C23.6797 18.5487 23.5986 18.5663 23.5169 18.5651C23.4322 18.5665 23.3482 18.5483 23.2706 18.5115C23.2009 18.4779 23.1387 18.4286 23.088 18.367C23.0366 18.3055 22.9974 18.2333 22.9729 18.1548C22.9453 18.0714 22.9314 17.9835 22.9317 17.895C22.9312 17.8065 22.9452 17.7186 22.9729 17.6353C22.9975 17.5565 23.0367 17.484 23.088 17.422C23.139 17.361 23.2012 17.3121 23.2706 17.2785C23.4255 17.2085 23.5998 17.2085 23.7547 17.2785C23.8257 17.3104 23.8895 17.3583 23.942 17.419C23.9941 17.4802 24.0345 17.552 24.0609 17.6302C24.0898 17.7157 24.1044 17.806 24.1039 17.897C24.1043 17.987 24.0897 18.0764 24.0609 18.1608Z" fill="white"/>
<path d="M16.21 17.5604C16.2739 17.5066 16.3501 17.4641 16.4339 17.4355C16.5232 17.4056 16.6185 17.3907 16.7146 17.3914C16.82 17.3906 16.9246 17.4055 17.0238 17.4355C17.1117 17.4627 17.1929 17.5035 17.263 17.5558L17.5 17.2242C17.4093 17.1627 17.308 17.1131 17.1996 17.0772C16.8879 16.9743 16.5414 16.9743 16.2296 17.0772C15.9405 17.1721 15.71 17.3623 15.5917 17.6036C15.4694 17.8582 15.4694 18.1428 15.5917 18.3973C15.7109 18.6382 15.9411 18.8281 16.2296 18.9237C16.5417 19.0254 16.8876 19.0254 17.1996 18.9237C17.3076 18.8871 17.4087 18.8376 17.5 18.7768L17.263 18.4451C17.1928 18.4972 17.1117 18.5377 17.0238 18.5645C16.9247 18.5948 16.82 18.61 16.7146 18.6096C16.6185 18.61 16.5231 18.5947 16.4339 18.5645C16.3498 18.5363 16.2736 18.4938 16.21 18.4396C16.1456 18.3846 16.0951 18.3193 16.0614 18.2476C15.9887 18.0885 15.9887 17.9124 16.0614 17.7533C16.0954 17.6814 16.1458 17.6159 16.21 17.5604Z" fill="white"/>
<path d="M25.0023 19C25.0688 18.9999 25.1346 19.0066 25.1958 19.0197C25.2546 19.0321 25.3085 19.0497 25.3548 19.0717C25.4003 19.0937 25.4364 19.1201 25.4607 19.1493C25.4878 19.179 25.5012 19.2115 25.4999 19.2442C25.501 19.2769 25.4876 19.3093 25.4607 19.3391C25.436 19.3682 25.4 19.3945 25.3548 19.4166C25.3086 19.439 25.2548 19.457 25.1958 19.4698C25.1345 19.4825 25.0686 19.4888 25.0023 19.4883C24.9345 19.4889 24.8671 19.4826 24.8042 19.4698C24.6844 19.4455 24.5885 19.3985 24.5369 19.3391C24.5119 19.309 24.4994 19.2767 24.5001 19.2442C24.4989 19.2116 24.5115 19.1793 24.5369 19.1493C24.5619 19.1202 24.5979 19.0939 24.6429 19.0717C24.7402 19.0257 24.8687 19.0001 25.0023 19ZM25.0023 19.4212C25.049 19.4213 25.0953 19.4166 25.1382 19.4073C25.1795 19.3982 25.217 19.3852 25.2488 19.3691C25.2801 19.3531 25.3051 19.3343 25.3225 19.3136C25.3409 19.2916 25.3504 19.268 25.3502 19.2442C25.3506 19.2207 25.3411 19.1974 25.3225 19.1759C25.3057 19.1547 25.2806 19.1355 25.2488 19.1192C25.2163 19.1039 25.1789 19.0913 25.1382 19.0822C25.0953 19.0729 25.049 19.0682 25.0023 19.0683C24.9541 19.0681 24.9062 19.0728 24.8618 19.0822C24.8208 19.0911 24.7833 19.1036 24.7512 19.1192C24.7187 19.1354 24.6928 19.1547 24.6752 19.1759C24.6573 19.1975 24.6486 19.2208 24.6498 19.2442C24.6488 19.2679 24.6575 19.2916 24.6752 19.3136C24.6934 19.3343 24.7192 19.3532 24.7512 19.3691C24.7826 19.3855 24.8202 19.3984 24.8618 19.4073C24.9056 19.4183 24.9534 19.4246 25.0023 19.4258V19.4212ZM25.0299 19.1354C25.0781 19.1335 25.126 19.1409 25.1636 19.1562C25.195 19.1687 25.2122 19.1882 25.2096 19.2083C25.2114 19.2246 25.1998 19.2405 25.1774 19.2523C25.1508 19.2647 25.1168 19.2724 25.0806 19.2743L25.2165 19.3518H25.076L24.9562 19.2766H24.9401V19.3518H24.8203V19.1354H25.0299ZM24.9355 19.1886V19.228H25.0276C25.0421 19.2294 25.057 19.2294 25.0714 19.228C25.0812 19.2241 25.0864 19.218 25.0852 19.2118C25.0888 19.2056 25.0853 19.1989 25.076 19.1944C25.0617 19.1924 25.0466 19.1924 25.0322 19.1944L24.9355 19.1886Z" fill="white"/>
<path d="M9.69092 7.5C9.68947 5.20827 10.7246 3.04224 12.5 1.6222C9.46871 -0.811845 5.09888 -0.471055 2.47095 2.40434C-0.156982 5.27973 -0.156982 9.72027 2.47095 12.5957C5.09888 15.4711 9.46871 15.8118 12.5 13.3778C10.7245 11.9579 9.68933 9.79177 9.69092 7.5Z" fill="#E30D17"/>
<path d="M13.5 14C15.1569 14 16.5 11.3137 16.5 8C16.5 4.68629 15.1569 2 13.5 2C11.8431 2 10.5 4.68629 10.5 8C10.5 11.3137 11.8431 14 13.5 14Z" fill="#EB610A"/>
<path d="M24.6409 11.4884V11.1044H24.5V11H24.892V11.1044H24.7389V11.4884H24.6409ZM25.3897 11.4884V11.1516L25.2887 11.4446H25.1784L25.0789 11.1516V11.4884H24.9732V11H25.1263L25.2366 11.3132L25.3469 11H25.5V11.4884H25.3897Z" fill="#F69F00"/>
<path d="M17.0874 1.16988e-05C15.4217 -0.00198117 13.8046 0.56849 12.5 1.61829C14.2738 3.03902 15.3086 5.20457 15.3086 7.49617C15.3086 9.78776 14.2738 11.9533 12.5 13.374C15.0422 15.4197 18.6029 15.5471 21.281 13.6881C23.9591 11.829 25.1292 8.4178 24.1665 5.27565C23.2039 2.13351 20.3333 -0.00577203 17.0874 1.16988e-05Z" fill="#F69F00"/>
</g>
<defs>
<clipPath id="clip0_892_833">
<rect width="26" height="20" fill="white" transform="translate(0.5)"/>
</clipPath>
</defs>
</svg>
