<svg width="38" height="39" viewBox="0 0 38 39" fill="none" xmlns="http://www.w3.org/2000/svg">
<g clip-path="url(#clip0_307_1024)">
<path d="M33 7.25977H5C2.23858 7.25977 0 9.49834 0 12.2598V26.2598C0 29.0212 2.23858 31.2598 5 31.2598H33C35.7614 31.2598 38 29.0212 38 26.2598V12.2598C38 9.49834 35.7614 7.25977 33 7.25977Z" fill="#122A96"/>
<path d="M15.76 15.8202L12.89 22.7102H11L9.61001 17.2602C9.59878 17.1309 9.55418 17.0067 9.48056 16.8997C9.40694 16.7928 9.30683 16.7068 9.19001 16.6502C8.63567 16.3847 8.05151 16.1866 7.45001 16.0602V15.8602H10.45C10.6486 15.8625 10.8399 15.9351 10.99 16.0651C11.1401 16.1951 11.2393 16.374 11.27 16.5702L12.01 20.5702L13.85 15.8802L15.76 15.8202ZM23.09 20.4602C23.09 18.6502 20.59 18.5502 20.61 17.7302C20.61 17.4902 20.85 17.2202 21.36 17.1602C21.9598 17.0995 22.5647 17.2032 23.11 17.4602L23.42 16.0002C22.888 15.8056 22.3265 15.7041 21.76 15.7002C20.01 15.7002 18.76 16.6302 18.76 17.9802C18.76 18.9802 19.64 19.5202 20.31 19.8502C20.98 20.1802 21.23 20.4102 21.23 20.7102C21.23 21.1702 20.68 21.3702 20.17 21.3802C19.5363 21.3969 18.9092 21.2487 18.35 20.9502L18 22.4602C18.638 22.7055 19.3166 22.8276 20 22.8202C21.86 22.8202 23.07 21.9002 23.08 20.4602M27.7 22.7102H29.33L27.91 15.8202H26.41C26.247 15.82 26.0876 15.8685 25.9522 15.9593C25.8169 16.0501 25.7116 16.1793 25.65 16.3302L23 22.7102H24.86L25.22 21.7102H27.49L27.7 22.7102ZM25.7 20.2702L26.64 17.6902L27.2 20.2602L25.7 20.2702ZM18.26 15.8202L16.8 22.7102H15.06L16.52 15.8202H18.26Z" fill="white"/>
</g>
<defs>
<clipPath id="clip0_307_1024">
<rect width="38" height="38" fill="white" transform="translate(0 0.259766)"/>
</clipPath>
</defs>
</svg>
