<svg width="26" height="27" viewBox="0 0 26 27" fill="none" xmlns="http://www.w3.org/2000/svg">
<g clip-path="url(#clip0_307_999)">
<g clip-path="url(#clip1_307_999)">
<g clip-path="url(#clip2_307_999)">
<path opacity="0.2" d="M25.61 16.4048C23.8737 23.3692 16.8196 27.6072 9.8544 25.8709C2.89249 24.1345 -1.34592 17.0804 0.390806 10.1164C2.1263 3.15129 9.18002 -1.08752 16.1432 0.648789C23.1079 2.38511 27.3463 9.44004 25.61 16.4048Z" fill="#F7931A"/>
<path fill-rule="evenodd" clip-rule="evenodd" d="M16.9153 11.7495C17.0905 10.576 16.1971 9.94516 14.9754 9.52433L15.3717 7.9347L14.4038 7.69356L14.0179 9.24129C13.7638 9.17791 13.5026 9.1181 13.243 9.05885L13.6316 7.50091L12.6645 7.25977L12.2679 8.84885C12.0574 8.80089 11.8507 8.75349 11.65 8.70361L11.6511 8.69865L10.3167 8.36545L10.0593 9.39893C10.0593 9.39893 10.7772 9.56346 10.7621 9.57366C11.154 9.67149 11.2251 9.93083 11.2129 10.1364L10.7615 11.9474C10.7885 11.9543 10.8235 11.9642 10.8621 11.9796L10.7601 11.9543L10.1271 14.4911C10.0792 14.6102 9.95762 14.7888 9.68368 14.721C9.69332 14.735 8.98036 14.5454 8.98036 14.5454L8.5 15.6533L9.75947 15.9672C9.90165 16.0028 10.0421 16.0395 10.181 16.0757C10.271 16.0992 10.3603 16.1225 10.449 16.1452L10.0486 17.7533L11.0151 17.9945L11.4119 16.4037C11.6757 16.4754 11.932 16.5415 12.1828 16.6038L11.7876 18.1871L12.7552 18.4283L13.1556 16.8235C14.8056 17.1357 16.0466 17.0098 16.5683 15.5177C16.9891 14.3161 16.5476 13.623 15.6795 13.1707C16.3117 13.0244 16.7882 12.6085 16.9153 11.7495ZM14.7042 14.8497C14.4295 15.9525 12.7029 15.4962 11.9136 15.2876C11.8429 15.2689 11.7798 15.2522 11.7258 15.2388L12.2572 13.1087C12.3231 13.1252 12.4036 13.1433 12.4948 13.1637C13.3113 13.347 14.9845 13.7225 14.7042 14.8497ZM12.659 12.1753C13.3176 12.351 14.7531 12.734 15.0032 11.7321C15.2589 10.7072 13.8629 10.3983 13.1812 10.2474C13.1046 10.2305 13.0369 10.2155 12.9817 10.2017L12.5 12.1337C12.5456 12.145 12.5991 12.1593 12.659 12.1753Z" fill="#F7931A"/>
</g>
</g>
</g>
<defs>
<clipPath id="clip0_307_999">
<rect width="26" height="26" fill="white" transform="translate(0 0.259766)"/>
</clipPath>
<clipPath id="clip1_307_999">
<rect width="26" height="26" fill="white" transform="translate(0 0.259766)"/>
</clipPath>
<clipPath id="clip2_307_999">
<rect width="26" height="26" fill="white" transform="translate(0 0.259766)"/>
</clipPath>
</defs>
</svg>
