<svg width="50" height="20" viewBox="0 0 50 20" fill="none" xmlns="http://www.w3.org/2000/svg">
<g clip-path="url(#clip0_892_853)">
<path d="M9.45323 2.5785C8.87894 3.25404 7.96009 3.78687 7.04123 3.71075C6.92637 2.79734 7.37623 1.82683 7.90266 1.2274C8.47694 0.532826 9.48194 0.038059 10.2955 0C10.3912 0.951475 10.0179 1.88392 9.45323 2.5785ZM10.2859 3.89153C8.95551 3.81541 7.81651 4.6432 7.1848 4.6432C6.54352 4.6432 5.5768 3.92959 4.52395 3.94862C3.15524 3.96765 1.88224 4.73834 1.18353 5.96575C-0.252184 8.42055 0.810243 12.0552 2.1981 14.0533C2.87767 15.0428 3.69124 16.1275 4.76323 16.0894C5.7778 16.0514 6.1798 15.4329 7.40494 15.4329C8.63966 15.4329 8.9938 16.0894 10.0658 16.0704C11.1761 16.0514 11.8748 15.0809 12.5544 14.0913C13.3296 12.9686 13.6455 11.8744 13.6646 11.8173C13.6455 11.7983 11.5206 10.9895 11.5015 8.55376C11.4824 6.5176 13.1765 5.5471 13.2531 5.49001C12.2959 4.08183 10.8028 3.92959 10.2859 3.89153ZM17.9718 1.13225V15.9657H20.2881V10.8944H23.4945C26.4233 10.8944 28.4812 8.89629 28.4812 6.00381C28.4812 3.11132 26.4616 1.13225 23.5711 1.13225H17.9718ZM20.2881 3.07326H22.9585C24.9685 3.07326 26.1171 4.13892 26.1171 6.01332C26.1171 7.88773 24.9685 8.96289 22.9489 8.96289H20.2881V3.07326ZM32.7118 16.0799C34.1666 16.0799 35.5162 15.3473 36.1287 14.1865H36.1766V15.9657H38.3206V8.5823C38.3206 6.44148 36.5977 5.06185 33.9465 5.06185C31.4866 5.06185 29.668 6.46051 29.601 8.38249H31.6876C31.8599 7.46908 32.7118 6.86965 33.8795 6.86965C35.296 6.86965 36.0905 7.52617 36.0905 8.73454V9.55281L33.1999 9.72407C30.5103 9.88582 29.0555 10.98 29.0555 12.883C29.0555 14.8049 30.5582 16.0799 32.7118 16.0799ZM33.3339 14.3197C32.0992 14.3197 31.3143 13.7298 31.3143 12.8259C31.3143 11.8934 32.0705 11.3511 33.5157 11.2655L36.0905 11.1037V11.941C36.0905 13.3302 34.9036 14.3197 33.3339 14.3197ZM41.1824 20C43.4413 20 44.5037 19.1437 45.4322 16.5461L49.5 5.20457H47.1454L44.4176 13.9677H44.3697L41.6419 5.20457H39.2203L43.1446 16.0038L42.934 16.6603C42.5799 17.7736 42.0056 18.2017 40.9814 18.2017C40.7996 18.2017 40.4454 18.1827 40.3019 18.1637V19.9429C40.4359 19.981 41.0102 20 41.1824 20Z" fill="white"/>
</g>
<defs>
<clipPath id="clip0_892_853">
<rect width="49" height="20" fill="white" transform="translate(0.5)"/>
</clipPath>
</defs>
</svg>
