<svg width="26" height="27" viewBox="0 0 26 27" fill="none" xmlns="http://www.w3.org/2000/svg">
<g clip-path="url(#clip0_307_1012)">
<g clip-path="url(#clip1_307_1012)">
<g clip-path="url(#clip2_307_1012)">
<path opacity="0.2" d="M25.9295 13.2595C25.9295 20.4015 20.1399 26.1911 12.9981 26.1911C5.85618 26.1911 0.0665894 20.4015 0.0665894 13.2595C0.0665894 6.11772 5.85618 0.328125 12.9981 0.328125C20.1399 0.328125 25.9295 6.11772 25.9295 13.2595Z" fill="#505050"/>
<g opacity="0.8">
<path d="M12.9568 7.25977L12.8769 7.53125V15.4091L12.9568 15.4888L16.6135 13.3273L12.9568 7.25977Z" fill="white"/>
<path d="M12.9568 7.25977L9.29999 13.3273L12.9568 15.4888V11.6652V7.25977Z" fill="white"/>
<path d="M12.9568 16.6781L12.9118 16.7329V19.5392L12.9568 19.6706L16.6157 14.5176L12.9568 16.6781Z" fill="white"/>
<path d="M12.9568 19.6707V16.6781L9.29999 14.5176L12.9568 19.6707Z" fill="white"/>
<path d="M12.9568 15.4886L16.6135 13.3271L12.9568 11.665V15.4886Z" fill="white"/>
<path d="M9.29999 13.3271L12.9567 15.4886V11.665L9.29999 13.3271Z" fill="white"/>
</g>
</g>
</g>
</g>
<defs>
<clipPath id="clip0_307_1012">
<rect width="26" height="26" fill="white" transform="translate(0 0.259766)"/>
</clipPath>
<clipPath id="clip1_307_1012">
<rect width="26" height="26" fill="white" transform="translate(0 0.259766)"/>
</clipPath>
<clipPath id="clip2_307_1012">
<rect width="26" height="26" fill="white" transform="translate(0 0.259766)"/>
</clipPath>
</defs>
</svg>
