<svg width="83" height="20" viewBox="0 0 83 20" fill="none" xmlns="http://www.w3.org/2000/svg">
<path fill-rule="evenodd" clip-rule="evenodd" d="M64.0486 8.38276C63.7998 10.0627 62.5516 10.0627 61.3444 10.0627H60.6575L61.1394 6.92619C61.1685 6.73668 61.3274 6.59701 61.5142 6.59701H61.8291C62.6507 6.59701 63.427 6.59701 63.8272 7.07826C64.0666 7.36621 64.139 7.79298 64.0486 8.38276ZM63.5231 4H58.9703C58.6591 4 58.3941 4.23284 58.3456 4.54898L56.5047 16.5493C56.4683 16.7859 56.6463 17 56.8796 17H59.2154C59.4333 17 59.6189 16.837 59.6527 16.6157L60.1749 13.2137C60.2234 12.8976 60.4883 12.6648 60.7995 12.6648H62.2402C65.239 12.6648 66.9696 11.1729 67.422 8.21618C67.6256 6.92303 67.4302 5.9069 66.8411 5.19555C66.1937 4.41352 65.0463 4 63.5231 4Z" fill="#238EC2"/>
<path fill-rule="evenodd" clip-rule="evenodd" d="M32.0484 8.38276C31.7996 10.0627 30.5515 10.0627 29.3445 10.0627H28.6576L29.1393 6.92619C29.1685 6.73668 29.3275 6.59701 29.5141 6.59701H29.829C30.6507 6.59701 31.427 6.59701 31.827 7.07826C32.0666 7.36621 32.1391 7.79298 32.0484 8.38276ZM31.5232 4H26.9704C26.6592 4 26.3943 4.23284 26.3458 4.54898L24.5047 16.5493C24.4685 16.7859 24.6465 17 24.8795 17H27.0533C27.3645 17 27.6297 16.7672 27.6782 16.4512L28.175 13.2137C28.2233 12.8976 28.4884 12.6648 28.7996 12.6648H30.2403C33.2388 12.6648 34.9696 11.1729 35.422 8.21618C35.6256 6.92303 35.4302 5.9069 34.8411 5.19555C34.1935 4.41352 33.0461 4 31.5232 4Z" fill="#253667"/>
<path fill-rule="evenodd" clip-rule="evenodd" d="M41.983 12.5275C41.7663 13.7954 40.7487 14.6465 39.4508 14.6465C38.8001 14.6465 38.2792 14.4395 37.9444 14.0476C37.6126 13.6589 37.4877 13.1054 37.5928 12.489C37.7949 11.2326 38.8288 10.3539 40.1069 10.3539C40.744 10.3539 41.2612 10.563 41.6027 10.9585C41.9463 11.3569 42.0813 11.9142 41.983 12.5275ZM45.1094 8.20888H42.8661C42.6738 8.20888 42.5102 8.34696 42.4803 8.53501L42.3816 9.15541L42.2247 8.93049C41.7389 8.23304 40.6562 8 39.575 8C37.0965 8 34.9793 9.85765 34.5672 12.4631C34.3527 13.7629 34.6571 15.0049 35.4023 15.8719C36.0868 16.6685 37.0638 17 38.2278 17C40.2256 17 41.3336 15.7307 41.3336 15.7307L41.2334 16.3473C41.1959 16.5818 41.3791 16.794 41.6191 16.794H43.6394C43.9597 16.794 44.2324 16.5637 44.2823 16.2507L45.4951 8.65517C45.5326 8.42068 45.3494 8.20888 45.1094 8.20888Z" fill="#253667"/>
<path fill-rule="evenodd" clip-rule="evenodd" d="M73.9829 12.5275C73.7663 13.7954 72.7488 14.6465 71.4509 14.6465C70.8001 14.6465 70.2793 14.4395 69.9443 14.0476C69.6125 13.6589 69.4876 13.1054 69.5929 12.489C69.7948 11.2326 70.8287 10.3539 72.107 10.3539C72.744 10.3539 73.2613 10.563 73.6027 10.9585C73.9463 11.3569 74.0813 11.9142 73.9829 12.5275ZM77.1094 8.20888H74.866C74.6738 8.20888 74.5102 8.34696 74.4803 8.53501L74.3815 9.15541L74.2249 8.93049C73.7389 8.23304 72.6562 8 71.5749 8C69.0966 8 66.9792 9.85765 66.5671 12.4631C66.3528 13.7629 66.6572 15.0049 67.4022 15.8719C68.087 16.6685 69.0638 17 70.2278 17C72.2256 17 73.3336 15.7307 73.3336 15.7307L73.2335 16.3473C73.1959 16.5818 73.379 16.794 73.6193 16.794H75.6394C75.9597 16.794 76.2324 16.5637 76.2825 16.2507L77.4951 8.65517C77.5326 8.42068 77.3494 8.20888 77.1094 8.20888Z" fill="#238EC2"/>
<mask id="mask0_892_860" style="mask-type:luminance" maskUnits="userSpaceOnUse" x="0" y="0" width="83" height="20">
<path d="M0.5 0H82.5V20H0.5V0Z" fill="#253667"/>
</mask>
<g mask="url(#mask0_892_860)">
<path fill-rule="evenodd" clip-rule="evenodd" d="M56.1392 9H54.0598C53.861 9 53.675 9.10043 53.5634 9.26787L50.6951 13.5691L49.4794 9.43591C49.4035 9.17733 49.1697 9 48.9045 9H46.8605C46.6137 9 46.4399 9.24712 46.5195 9.48494L48.8092 16.3275L46.6556 19.4214C46.4865 19.6641 46.6572 20 46.9494 20H49.0268C49.2237 20 49.408 19.9017 49.5202 19.7369L56.4353 9.57568C56.6007 9.33252 56.4298 9 56.1392 9Z" fill="#253667"/>
</g>
<mask id="mask1_892_860" style="mask-type:luminance" maskUnits="userSpaceOnUse" x="0" y="0" width="83" height="20">
<path d="M0.5 0H82.5V20H0.5V0Z" fill="#238EC2"/>
</mask>
<g mask="url(#mask1_892_860)">
<path fill-rule="evenodd" clip-rule="evenodd" d="M79.4799 4.3296L77.505 16.5493C77.4667 16.7861 77.6548 17 77.9012 17H79.8875C80.2164 17 80.4965 16.7672 80.5478 16.4512L82.495 4.45096C82.5335 4.21412 82.3453 4 82.0988 4H79.8761C79.6786 4 79.5106 4.13987 79.4799 4.3296Z" fill="#238EC2"/>
</g>
<mask id="mask2_892_860" style="mask-type:luminance" maskUnits="userSpaceOnUse" x="0" y="0" width="83" height="20">
<path d="M0.5 0H82.5V20H0.5V0Z" fill="#238EC2"/>
</mask>
<g mask="url(#mask2_892_860)">
<path fill-rule="evenodd" clip-rule="evenodd" d="M15.8199 5.08113C16.0647 3.5254 15.8182 2.46672 14.9742 1.50786C14.045 0.452235 12.3663 0 10.2185 0H3.98375C3.54487 0 3.17118 0.318398 3.10273 0.75067L0.506667 17.1642C0.455383 17.4881 0.70649 17.7808 1.03524 17.7808H4.88418L4.61856 19.4604C4.57382 19.7437 4.79325 20 5.08093 20H8.32509C8.70921 20 9.03612 19.7213 9.09598 19.3432L9.12786 19.1788L9.73897 15.3149L9.7784 15.1014C9.83827 14.7231 10.1652 14.4446 10.5491 14.4446H11.0343C14.1774 14.4446 16.6384 13.1715 17.3574 9.48961C17.6579 7.95119 17.5026 6.66701 16.708 5.76417C16.4676 5.49119 16.1686 5.26528 15.8199 5.08113Z" fill="#238EC2"/>
</g>
<mask id="mask3_892_860" style="mask-type:luminance" maskUnits="userSpaceOnUse" x="0" y="0" width="83" height="20">
<path d="M0.5 0H82.5V20H0.5V0Z" fill="#20274F"/>
</mask>
<g mask="url(#mask3_892_860)">
<path fill-rule="evenodd" clip-rule="evenodd" d="M15.4125 5.14377C15.6508 3.56886 15.4109 2.49713 14.5893 1.52645C13.6848 0.457811 12.0507 0 9.96007 0H3.89111C3.4639 0 3.10014 0.322323 3.03352 0.759924L0.50649 17.3758C0.45657 17.7037 0.700999 18 1.021 18H4.76759L5.70871 11.8121L5.67948 12.0062C5.7461 11.5686 6.10688 11.2461 6.53408 11.2461H8.3149C11.8121 11.2461 14.5503 9.77281 15.3504 5.51229C15.3741 5.38629 15.3944 5.264 15.4125 5.14377Z" fill="#20274F"/>
</g>
<mask id="mask4_892_860" style="mask-type:luminance" maskUnits="userSpaceOnUse" x="0" y="0" width="83" height="20">
<path d="M0.5 0H82.5V20H0.5V0Z" fill="#253667"/>
</mask>
<g mask="url(#mask4_892_860)">
<path fill-rule="evenodd" clip-rule="evenodd" d="M6.71964 5.1648C6.75982 4.90146 6.9227 4.68596 7.14207 4.57687C7.24191 4.52738 7.35329 4.49974 7.47004 4.49974H12.2272C12.7908 4.49974 13.3162 4.5381 13.7966 4.61832C13.934 4.64121 14.0674 4.66761 14.1973 4.69751C14.327 4.7272 14.4531 4.76061 14.575 4.79773C14.636 4.81608 14.6959 4.83547 14.755 4.85589C14.9909 4.93693 15.2104 5.03282 15.4125 5.14377C15.6508 3.56886 15.4109 2.49713 14.5893 1.52645C13.6848 0.457811 12.0507 0 9.96007 0H3.89111C3.4639 0 3.10014 0.322323 3.03352 0.759924L0.50649 17.3758C0.45657 17.7037 0.700999 18 1.021 18H4.76759L6.71964 5.1648Z" fill="#253667"/>
</g>
</svg>
