<svg width="26" height="27" viewBox="0 0 26 27" fill="none" xmlns="http://www.w3.org/2000/svg">
<g clip-path="url(#clip0_307_1004)">
<g clip-path="url(#clip1_307_1004)">
<g clip-path="url(#clip2_307_1004)">
<path opacity="0.2" d="M25.9295 13.2595C25.9295 20.4015 20.1399 26.1911 12.9981 26.1911C5.85619 26.1911 0.0665894 20.4015 0.0665894 13.2595C0.0665894 6.11772 5.85619 0.328125 12.9981 0.328125C20.1399 0.328125 25.9295 6.11772 25.9295 13.2595Z" fill="#00A478"/>
<path d="M11.6721 13.0334V10.7711H8.6037V8.78809H17.1779V10.799H14.1096V13.0334H11.6721Z" fill="#00A478"/>
<path fill-rule="evenodd" clip-rule="evenodd" d="M7.28455 13.2846C7.28455 12.5305 9.75073 11.916 12.8191 11.916C15.8875 11.916 18.3537 12.5305 18.3537 13.2846C18.3537 14.0387 15.8875 14.6531 12.8191 14.6531C9.75073 14.6531 7.28455 14.0387 7.28455 13.2846ZM17.8949 13.2846C17.6941 13.0053 16.0309 12.1395 12.8191 12.1395C9.60734 12.1395 7.94411 12.9773 7.74337 13.2846C7.94411 13.5639 9.60734 13.9828 12.8191 13.9828C16.0596 13.9828 17.6941 13.5639 17.8949 13.2846Z" fill="#00A478"/>
<path d="M14.1096 13.7323V12.1682C13.7081 12.1403 13.2779 12.1123 12.8478 12.1123C12.4463 12.1123 12.0735 12.1123 11.7007 12.1403V13.7043C12.0449 13.7043 12.4463 13.7323 12.8478 13.7323C13.2779 13.7602 13.7081 13.7602 14.1096 13.7323Z" fill="#00A478"/>
<path d="M12.8191 14.6536C12.4176 14.6536 12.0449 14.6536 11.6721 14.6256V18.7871H14.0809V14.5977C13.6794 14.6256 13.2493 14.6536 12.8191 14.6536Z" fill="#00A478"/>
</g>
</g>
</g>
<defs>
<clipPath id="clip0_307_1004">
<rect width="26" height="26" fill="white" transform="translate(0 0.259766)"/>
</clipPath>
<clipPath id="clip1_307_1004">
<rect width="26" height="26" fill="white" transform="translate(0 0.259766)"/>
</clipPath>
<clipPath id="clip2_307_1004">
<rect width="26" height="26" fill="white" transform="translate(0 0.259766)"/>
</clipPath>
</defs>
</svg>
