<svg width="181" height="50" viewBox="0 0 181 50" fill="none" xmlns="http://www.w3.org/2000/svg">
<path d="M1.00136e-05 50L0 3.99351e-06L25.551 0C41.0468 -3e-06 53.5124 6.88704 53.5124 25C53.5124 44.3526 40.0826 50 22.5895 50H1.00136e-05ZM12.5344 10.2617V39.7383H22.3141C33.8843 39.7383 39.8072 34.4352 39.8072 24.7934C39.8072 15.1515 33.8843 10.2617 22.314 10.2617H12.5344Z" fill="white"/>
<path d="M53.5122 50V6.02007e-06L85.8125 0C97.0383 -2e-06 102.685 4.13223 102.685 12.4656C102.685 17.2865 100.344 21.1432 95.8673 23.416C101.652 25.2755 104.545 29.4766 104.545 35.7438C104.545 44.3526 98.6913 50 88.3607 50H53.5122ZM66.0466 28.7879V39.7383H82.7133C88.6362 39.7383 91.4599 39.1184 91.4599 34.573C91.4599 30.303 88.705 28.7879 82.7133 28.7879H66.0466ZM66.0466 10.2617V20.0413H80.8538C86.7767 20.0413 89.6004 19.146 89.6004 14.876C89.6004 11.0193 86.8455 10.2617 80.8538 10.2617H66.0466Z" fill="white"/>
<path d="M104.545 50L128.237 2.02656e-06L140.22 0L163.016 50H149.104L144.559 39.3939H122.52L118.044 50H104.545ZM126.79 29.27H140.013L133.333 13.843L126.79 29.27Z" fill="white"/>
<path d="M166.717 7.64H165.337V1.16H163.017V0H169.037V1.16H166.717V7.64ZM172.537 7.64H171.237V0H173.877L175.577 6.92H175.817L177.437 0H180.197V7.64H178.797V0.719999H178.517L176.897 7.64H174.497L172.817 0.719999H172.537V7.64Z" fill="white"/>
</svg>
