<svg width="60" height="60" viewBox="0 0 60 60" fill="none" xmlns="http://www.w3.org/2000/svg">
<path d="M50.0908 31.4062C50.4193 32.2605 51.0364 32.9729 51.8351 33.4198C52.6338 33.8667 53.5638 34.02 54.4637 33.8529C55.3636 33.6859 56.1766 33.2092 56.7618 32.5054C57.3469 31.8016 57.6673 30.9152 57.6673 30C57.6673 29.0847 57.3469 28.1983 56.7618 27.4946C56.1766 26.7908 55.3636 26.3141 54.4637 26.147C53.5638 25.98 52.6338 26.1332 51.8351 26.5802C51.0364 27.0271 50.4193 27.7394 50.0908 28.5937H31.4064V24.2437H39.0283C39.2794 24.2452 39.5261 24.177 39.7408 24.0469L47.9533 19.2375C48.4385 20.0005 49.1731 20.5718 50.0321 20.854C50.8911 21.1362 51.8214 21.1119 52.6646 20.7853C53.5077 20.4586 54.2115 19.8498 54.6562 19.0626C55.1009 18.2753 55.2589 17.3582 55.1034 16.4675C54.9479 15.5768 54.4884 14.7675 53.8033 14.1775C53.1181 13.5875 52.2496 13.2532 51.3457 13.2316C50.4417 13.21 49.5583 13.5025 48.8457 14.0591C48.1331 14.6157 47.6356 15.4021 47.4377 16.2844L38.6533 21.4312H31.4064V12.5531H36.2627C36.5711 13.4095 37.1693 14.131 37.9538 14.5927C38.7382 15.0545 39.6594 15.2272 40.5578 15.0812C41.4563 14.9351 42.2753 14.4794 42.8731 13.793C43.4709 13.1066 43.8097 12.2327 43.8309 11.3227C43.8522 10.4127 43.5545 9.52397 42.9893 8.81042C42.4242 8.09686 41.6273 7.60345 40.7367 7.41564C39.8461 7.22783 38.9178 7.35746 38.1127 7.78208C37.3076 8.20669 36.6763 8.89955 36.3283 9.74061H31.5377C31.7472 8.70515 32.2404 7.7483 32.9622 6.97685C33.684 6.20541 34.6059 5.64974 35.6252 5.37186C35.8037 5.32262 35.9708 5.23869 36.1169 5.12488C36.2629 5.01107 36.3852 4.8696 36.4766 4.70855C36.568 4.5475 36.6268 4.37002 36.6496 4.18625C36.6724 4.00247 36.6588 3.81601 36.6096 3.63749C36.5603 3.45897 36.4764 3.29191 36.3626 3.14582C36.2488 2.99974 36.1073 2.87751 35.9462 2.7861C35.7852 2.69469 35.6077 2.6359 35.4239 2.61308C35.2402 2.59027 35.0537 2.60387 34.8752 2.65311C32.8725 3.20585 31.1395 4.4689 30.0002 6.20624C29.0146 4.69772 27.5762 3.54043 25.8916 2.90066C24.2071 2.26089 22.3631 2.17156 20.6246 2.64551C18.8861 3.11946 17.3426 4.13229 16.2158 5.53848C15.089 6.94468 14.4369 8.67185 14.3533 10.4719C12.2581 11.2177 10.4454 12.5944 9.16444 14.4125C7.88352 16.2306 7.19732 18.401 7.20019 20.625C7.20165 21.1651 7.24553 21.7043 7.33144 22.2375C5.84569 22.9192 4.58678 24.013 3.70423 25.389C2.82167 26.7649 2.35254 28.3653 2.35254 30C2.35254 31.6347 2.82167 33.235 3.70423 34.611C4.58678 35.987 5.84569 37.0808 7.33144 37.7625C7.24553 38.2957 7.20165 38.8349 7.20019 39.375C7.19457 41.5997 7.8797 43.7712 9.16099 45.5899C10.4423 47.4086 12.2565 48.7846 14.3533 49.5281C14.4369 51.3281 15.089 53.0553 16.2158 54.4615C17.3426 55.8677 18.8861 56.8805 20.6246 57.3545C22.3631 57.8284 24.2071 57.7391 25.8916 57.0993C27.5762 56.4595 29.0146 55.3023 30.0002 53.7937C31.1326 55.5256 32.8547 56.788 34.8471 57.3469C34.9717 57.3606 35.0974 57.3606 35.2221 57.3469C35.5649 57.3506 35.8973 57.2289 36.1567 57.0048C36.4162 56.7806 36.5848 56.4694 36.6308 56.1296C36.6769 55.7899 36.5972 55.445 36.4069 55.1599C36.2165 54.8747 35.9285 54.6689 35.5971 54.5812C34.583 54.2989 33.667 53.7412 32.9505 52.9701C32.2339 52.199 31.745 51.2445 31.5377 50.2125H36.3283C36.677 51.0641 37.313 51.7667 38.1257 52.1982C38.9385 52.6297 39.8768 52.7629 40.7775 52.5747C41.6783 52.3865 42.4847 51.8887 43.0567 51.1679C43.6286 50.447 43.9301 49.5486 43.9086 48.6286C43.8871 47.7086 43.5441 46.8252 42.9392 46.1318C42.3342 45.4384 41.5054 44.9788 40.5969 44.8328C39.6883 44.6868 38.7573 44.8637 37.9655 45.3326C37.1738 45.8016 36.5713 46.5331 36.2627 47.4H31.4064V38.5687H38.6533L47.4377 43.7156C47.6352 44.6005 48.1335 45.3896 48.8476 45.9482C49.5617 46.5069 50.4475 46.8007 51.3539 46.7795C52.2604 46.7583 53.1314 46.4234 53.8186 45.832C54.5059 45.2405 54.9667 44.429 55.1227 43.5359C55.2786 42.6427 55.12 41.7231 54.6739 40.9337C54.2278 40.1444 53.5217 39.5341 52.6761 39.207C51.8305 38.8799 50.8976 38.8561 50.0364 39.1398C49.1752 39.4234 48.439 39.9969 47.9533 40.7625L39.7408 35.9531C39.5261 35.8229 39.2794 35.7548 39.0283 35.7562H31.4064V31.4062H50.0908Z" fill="#0A9BCD"/>
</svg>
