<svg width="61" height="60" viewBox="0 0 61 60" fill="none" xmlns="http://www.w3.org/2000/svg">
<path d="M50.846 44.5779C49.6915 44.5797 48.5644 44.9292 47.6116 45.5811L39.3054 36.7779C39.8649 35.9748 40.2587 35.0681 40.4638 34.111C40.6688 33.1538 40.681 32.1654 40.4997 31.2035C40.3183 30.2416 39.947 29.3255 39.4075 28.5087C38.868 27.692 38.1711 26.991 37.3575 26.4467L42.2452 18.2454C43.0757 18.5619 43.9572 18.7233 44.846 18.7217C45.5962 18.7201 46.3419 18.6063 47.0585 18.3842L49.6647 26.9436C44.5781 28.7726 45.8238 36.3807 51.2867 36.4311C57.573 36.2574 57.8231 27.1759 51.549 26.6811L48.7835 17.5779C54.9403 13.6961 52.2563 3.99011 44.8458 3.95605C43.2809 3.95707 41.7566 4.45392 40.4916 5.37527C39.2267 6.29663 38.2862 7.59511 37.8053 9.08428C37.8034 9.08201 24.3991 8.2457 24.4085 8.23105C24.2915 7.52007 24.0186 6.8438 23.6092 6.25084C23.1999 5.65788 22.6643 5.16294 22.0409 4.80157C21.4175 4.44021 20.7218 4.22138 20.0038 4.16082C19.2859 4.10026 18.5634 4.19947 17.8883 4.45132C17.2132 4.70316 16.6022 5.1014 16.0993 5.61741C15.5964 6.13343 15.2141 6.75442 14.9797 7.43577C14.7453 8.11713 14.6647 8.84194 14.7437 9.55813C14.8228 10.2743 15.0594 10.9641 15.4367 11.578L12.1179 15.3186C11.3361 14.9772 10.4881 14.8144 9.63548 14.8421C8.78289 14.8698 7.9472 15.0872 7.18923 15.4786C6.43125 15.8699 5.77006 16.4253 5.25378 17.1044C4.7375 17.7834 4.37912 18.5691 4.20471 19.4041C4.0303 20.2391 4.04426 21.1025 4.24557 21.9314C4.44688 22.7604 4.83048 23.534 5.36844 24.196C5.90641 24.858 6.58521 25.3918 7.35543 25.7584C8.12566 26.125 8.96795 26.3153 9.82098 26.3154C10.5878 26.3177 11.3471 26.1644 12.0529 25.8647C12.7588 25.5649 13.3964 25.1251 13.9272 24.5717L26.1335 30.5623C25.8235 31.6584 25.7722 32.8115 25.9837 33.9307C26.1952 35.05 26.6637 36.1049 27.3522 37.0123L17.846 45.5811C14.2544 42.9457 8.74055 45.8213 8.88362 50.3155C9.12175 57.8775 20.111 57.8929 20.3585 50.3153C20.3599 49.0734 19.9549 47.8651 19.2054 46.8748L28.6647 38.3529C30.0113 39.4019 31.6772 39.9566 33.3838 39.9241C35.0904 39.8917 36.734 39.2741 38.0397 38.1747L46.2522 46.8936C43.4014 50.4898 46.2246 56.15 50.8461 56.0435C52.3666 56.0435 53.8247 55.4394 54.8998 54.3643C55.9749 53.2892 56.5788 51.8311 56.5788 50.3106C56.5788 48.7902 55.9748 47.3321 54.8997 46.257C53.8246 45.1819 52.3664 44.5779 50.846 44.5779ZM15.0054 23.0154C15.5227 21.9121 15.6744 20.6724 15.4383 19.4769C15.2022 18.2814 14.5907 17.1924 13.6928 16.3686L16.721 12.9561C17.375 13.4244 18.134 13.7248 18.9313 13.831C19.7286 13.9372 20.5398 13.8458 21.2935 13.565C22.0472 13.2841 22.7204 12.8224 23.2538 12.2204C23.7873 11.6183 24.1646 10.8945 24.3527 10.1124L37.4678 10.9418C37.4021 12.1887 37.654 13.4319 38.2 14.5548C38.746 15.6777 39.5682 16.6437 40.5895 17.362L35.678 25.6032C34.0613 25.0439 32.301 25.0604 30.695 25.6497C29.089 26.2391 27.7359 27.3651 26.8647 28.8374L15.0054 23.0154Z" fill="#0A9BCD"/>
</svg>
