<svg width="60" height="60" viewBox="0 0 60 60" fill="none" xmlns="http://www.w3.org/2000/svg">
<path d="M30.0002 21.3843C28.0056 21.3878 26.0937 22.1823 24.6842 23.5936C23.2746 25.005 22.4825 26.9178 22.4814 28.9124C22.8622 38.8779 37.1514 38.8655 37.5284 28.9123C37.5268 26.9162 36.7332 25.0023 35.3217 23.5909C33.9102 22.1794 31.9963 21.3858 30.0002 21.3843Z" fill="#0A9BCD"/>
<path d="M52.8377 14.4094C53.1591 14.1109 53.4173 13.7509 53.5968 13.3507C53.7764 12.9504 53.8737 12.5182 53.8829 12.0797C53.8921 11.6411 53.8131 11.2052 53.6506 10.7978C53.488 10.3904 53.2452 10.0198 52.9366 9.70805C52.628 9.39632 52.2599 9.14979 51.8542 8.98311C51.4484 8.81643 51.0133 8.73301 50.5747 8.7378C50.1361 8.74259 49.7029 8.83549 49.3009 9.01098C48.8989 9.18647 48.5363 9.44098 48.2345 9.75938C45.8064 9.21563 42.572 9.60001 38.8033 10.9125C36.4753 6.29881 33.3776 3.7459 30.002 3.75C26.6322 3.75 23.5321 6.28407 21.2092 10.9042C20.8241 10.7725 20.4385 10.6409 20.072 10.5281C20.0251 9.78367 19.7261 9.07742 19.2242 8.52564C18.7222 7.97387 18.0474 7.60948 17.3107 7.49248C16.574 7.37549 15.8195 7.51287 15.1713 7.88199C14.5231 8.25112 14.02 8.82998 13.7448 9.52324C2.63945 10.3809 7.3112 21.5694 13.5751 28.9029C12.4146 30.2786 11.3496 31.732 10.3877 33.2531C10.0669 33.1479 9.7315 33.0941 9.39391 33.0938C8.69502 33.1014 8.01672 33.3314 7.45736 33.7504C6.898 34.1695 6.48664 34.7558 6.28294 35.4244C6.07925 36.093 6.09379 36.8091 6.32447 37.4688C6.55515 38.1286 6.98997 38.6978 7.56589 39.0938C6.29078 43.35 7.60328 45.6 8.98141 46.7625C12.3377 49.2704 16.8603 48.3273 21.2158 46.9093C22.374 49.5246 24.2997 51.7261 26.7377 53.2218C26.8079 54.0396 27.1827 54.8013 27.7878 55.3559C28.3929 55.9106 29.1842 56.2177 30.005 56.2166C30.8259 56.2154 31.6164 55.906 32.2199 55.3497C32.8235 54.7934 33.1961 54.0307 33.264 53.2127C35.3586 52.1144 37.2474 49.9594 38.7867 46.9116C39.7361 47.244 40.7028 47.5247 41.6826 47.7524C41.7798 48.5168 42.1425 49.2227 42.7074 49.7467C43.2723 50.2707 44.0034 50.5795 44.7729 50.619C45.5424 50.6586 46.3013 50.4264 46.917 49.963C47.5326 49.4997 47.9658 48.8347 48.1408 48.0843C49.4171 47.9053 50.5917 47.2886 51.4638 46.3396C52.3359 45.3906 52.8513 44.1682 52.922 42.8813C53.2127 39.2719 50.8408 34.2 46.4252 28.9031C51.1314 23.2781 53.4283 18.0656 52.8377 14.4094ZM47.372 11.5031C47.2923 12.0076 47.3315 12.5237 47.4867 13.0103C47.6418 13.4969 47.9085 13.9405 48.2655 14.3057C48.6225 14.6709 49.0599 14.9476 49.5429 15.1137C50.0258 15.2798 50.5409 15.3308 51.047 15.2625C51.2064 18.2719 49.0595 22.7719 45.1783 27.4688C44.298 26.4854 43.3427 25.4926 42.322 24.5186C42.0147 20.4324 41.0866 16.4169 39.5695 12.6103C42.051 11.6476 44.7207 11.2688 47.372 11.5031ZM37.8173 44.541C35.754 43.7123 33.7514 42.7398 31.8243 41.6308C34.252 40.0704 36.5769 38.3556 38.7845 36.4969C39.2632 36.0933 39.7512 35.6804 40.2204 35.2486C39.8305 38.4381 39.0225 41.5624 37.8173 44.541ZM22.1908 44.55C20.9844 41.571 20.1755 38.4462 19.7852 35.256C20.2579 35.6749 20.7338 36.0905 21.2148 36.493C23.4309 38.3505 25.7635 40.0646 28.1981 41.6247C26.2703 42.746 24.2624 43.7238 22.1908 44.55ZM22.1914 13.2699C24.258 14.0998 26.2629 15.0759 28.1908 16.1906C25.7559 17.7487 23.4259 19.4649 21.2158 21.3281C20.7391 21.73 20.2533 22.1412 19.7859 22.5618C20.1762 19.3723 20.985 16.2481 22.1914 13.2699ZM17.5232 30.4885C15.8349 28.7541 15.7884 29.0644 17.5222 27.3375C17.4861 28.3892 17.483 29.4315 17.5232 30.4885ZM22.4196 35.0555C21.4213 34.2215 20.4421 33.3441 19.4975 32.4505C19.3258 30.0941 19.3258 27.7282 19.4977 25.3718C22.7149 22.3219 26.2338 19.6069 30.0002 17.2688C33.7633 19.6079 37.2829 22.3177 40.5066 25.3575C40.6793 27.7212 40.6793 30.0943 40.5067 32.4579C39.5544 33.354 38.5835 34.2315 37.5846 35.0531C35.1956 37.0681 32.6627 38.9061 30.0061 40.5524C27.3496 38.903 24.8143 37.0661 22.4196 35.0555ZM37.8137 13.2717C39.019 16.2475 39.8275 19.369 40.2184 22.5558C39.7498 22.1434 39.2719 21.7311 38.7939 21.3282C36.5788 19.4671 34.2459 17.751 31.8095 16.1907C33.7392 15.0766 35.7457 14.1012 37.8137 13.2717ZM42.4817 27.3314C44.1998 29.0603 44.2217 28.7483 42.4875 30.4782C42.5094 29.4569 42.5268 28.3797 42.4817 27.3314ZM30.002 5.625C32.5477 5.625 35.0758 7.77839 37.0289 11.5661C34.5985 12.5479 32.2484 13.718 30.0002 15.0656C27.756 13.7131 25.4066 12.5432 22.9749 11.5674C24.928 7.77867 27.4563 5.625 30.002 5.625ZM8.95493 15.0906C9.17257 12.5209 11.0352 11.5536 13.5988 11.425C13.7426 12.0683 14.0771 12.6533 14.5585 13.1036C15.0399 13.5539 15.6459 13.8485 16.2974 13.9491C16.9488 14.0497 17.6155 13.9515 18.2102 13.6673C18.805 13.3831 19.3003 12.9262 19.6314 12.3563C19.8947 12.4409 20.1582 12.5255 20.4308 12.6197C18.9172 16.422 17.9909 20.4324 17.6837 24.5133C16.6647 25.4952 15.7108 26.4865 14.8224 27.4684C10.8939 22.7026 8.71175 18.1247 8.95493 15.0906ZM10.1908 45.3188C8.56891 43.9688 8.77516 41.6156 9.35641 39.6563C9.98031 39.664 10.5935 39.4935 11.1238 39.1649C11.6542 38.8362 12.0798 38.363 12.3505 37.8009C12.6212 37.2387 12.7259 36.611 12.6522 35.9914C12.5786 35.3718 12.3296 34.7861 11.9345 34.3031C12.8124 32.9232 13.7777 31.6008 14.8244 30.3442C15.7072 31.3297 16.665 32.3236 17.6838 33.3126C17.9914 37.3932 18.9181 41.4031 20.4321 45.2049C15.7185 46.79 12.0088 46.8475 10.1908 45.3188ZM32.8279 51.3136C32.5358 50.8252 32.122 50.421 31.6269 50.1404C31.1319 49.8598 30.5725 49.7124 30.0034 49.7126C29.4344 49.7129 28.8751 49.8607 28.3803 50.1417C27.8854 50.4227 27.4719 50.8273 27.1802 51.3159C25.3585 50.029 23.91 48.2828 22.9818 46.2548C25.4136 45.2751 27.7628 44.1017 30.0068 42.7461C32.2535 44.0911 34.6008 45.2607 37.0276 46.2445C36.0998 48.2753 34.6508 50.0243 32.8279 51.3136ZM51.047 42.7313C51.0166 43.572 50.6968 44.3764 50.1416 45.0085C49.5864 45.6405 48.83 46.0615 48.0002 46.2C47.773 45.6052 47.3777 45.0895 46.8623 44.7156C46.347 44.3417 45.734 44.126 45.0981 44.0946C44.4622 44.0633 43.831 44.2177 43.2814 44.5391C42.7318 44.8604 42.2876 45.3348 42.0031 45.9044C41.2411 45.727 40.4294 45.4922 39.5733 45.2013C41.0874 41.3989 42.014 37.3883 42.3213 33.307C43.3422 32.3329 44.2977 31.3305 45.1783 30.3469C49.1158 35.1188 51.2908 39.7031 51.047 42.7313Z" fill="#0A9BCD"/>
</svg>
