<svg width="60" height="60" viewBox="0 0 60 60" fill="none" xmlns="http://www.w3.org/2000/svg">
<g clip-path="url(#clip0_924_2579)">
<path d="M51.213 8.78684C45.5468 3.12059 38.013 0 29.9998 0C21.9865 0 14.453 3.12059 8.7866 8.78684C3.12047 14.4531 0 21.9867 0 30C0 38.0133 3.12047 45.5469 8.78672 51.2132C14.453 56.8794 21.9866 60 29.9998 60C38.0129 60 45.5467 56.8794 51.213 51.2132C56.8793 45.5469 59.9998 38.0133 59.9998 30C59.9998 21.9867 56.8793 14.4531 51.213 8.78684ZM11.2969 24.3517C11.2969 20.2677 14.6193 16.9453 18.703 16.9453C22.7868 16.9453 26.1091 20.2678 26.1091 24.3517C26.1091 25.3225 25.3221 26.1095 24.3513 26.1095C23.3805 26.1095 22.5935 25.3225 22.5935 24.3517C22.5935 22.2062 20.8482 20.4609 18.703 20.4609C16.5578 20.4609 14.8125 22.2063 14.8125 24.3517C14.8125 25.3225 14.0255 26.1095 13.0547 26.1095C12.0839 26.1095 11.2969 25.3225 11.2969 24.3517ZM47.6366 36.2341C45.0005 43.6922 37.913 48.7031 29.9998 48.7031C22.0866 48.7031 14.9988 43.6922 12.3629 36.2341C12.0394 35.3188 12.5191 34.3146 13.4345 33.9911C14.3498 33.6677 15.3541 34.1474 15.6777 35.0627C17.8181 41.1188 23.5738 45.1875 29.9999 45.1875C36.426 45.1875 42.1815 41.1186 44.3221 35.0626C44.6456 34.1473 45.6499 33.6682 46.5653 33.9911C47.4805 34.3145 47.9602 35.3188 47.6366 36.2341ZM46.945 26.1095C45.9742 26.1095 45.1871 25.3225 45.1871 24.3517C45.1871 22.2062 43.4419 20.4609 41.2966 20.4609C39.1514 20.4609 37.4061 22.2063 37.4061 24.3517C37.4061 25.3225 36.6191 26.1095 35.6483 26.1095C34.6775 26.1095 33.8905 25.3225 33.8905 24.3517C33.8905 20.2677 37.2129 16.9453 41.2966 16.9453C45.3805 16.9453 48.7028 20.2678 48.7028 24.3517C48.7028 25.3225 47.9157 26.1095 46.945 26.1095Z" fill="#0A9BCD"/>
</g>
<defs>
<clipPath id="clip0_924_2579">
<rect width="60" height="60" fill="white"/>
</clipPath>
</defs>
</svg>
