<svg width="61" height="60" viewBox="0 0 61 60" fill="none" xmlns="http://www.w3.org/2000/svg">
<g clip-path="url(#clip0_924_479)">
<path d="M47.5802 20.387C48.1305 19.5545 48.4519 18.558 48.4519 17.4874C48.4519 14.5796 46.0863 12.214 43.1785 12.214C42.108 12.214 41.1115 12.5354 40.2789 13.0857C37.3577 11.4218 34.0616 10.5469 30.666 10.5469C19.9395 10.5469 11.2129 19.2735 11.2129 30C11.2129 33.3956 12.0878 36.6916 13.7519 39.613C13.2016 40.4455 12.8801 41.442 12.8801 42.5126C12.8801 45.4203 15.2458 47.786 18.1536 47.786C19.2241 47.786 20.2205 47.4646 21.0531 46.9143C23.9744 48.5782 27.2704 49.4531 30.666 49.4531C41.3925 49.4531 50.1191 40.7265 50.1191 30C50.1191 26.6044 49.2442 23.3084 47.5802 20.387ZM30.666 45.9375C28.0367 45.9375 25.4819 45.2966 23.1902 44.0767C23.344 43.5823 23.427 43.0569 23.427 42.5126C23.427 39.6048 21.0613 37.2391 18.1536 37.2391C17.6092 37.2391 17.0839 37.3221 16.5895 37.476C15.3694 35.1841 14.7285 32.6293 14.7285 30C14.7285 21.2121 21.8781 14.0625 30.666 14.0625C33.2954 14.0625 35.8502 14.7034 38.1419 15.9233C37.988 16.4177 37.905 16.9431 37.905 17.4874C37.905 20.3952 40.2707 22.7609 43.1785 22.7609C43.7228 22.7609 44.2482 22.6779 44.7426 22.524C45.9626 24.8159 46.6035 27.3707 46.6035 30C46.6035 38.7879 39.4539 45.9375 30.666 45.9375Z" fill="#0A9BCD"/>
<path fill-rule="evenodd" clip-rule="evenodd" d="M46.4805 20.3505L46.7981 19.87C47.2508 19.1852 47.5144 18.3676 47.5144 17.4874C47.5144 15.0974 45.5685 13.1515 43.1785 13.1515C42.2985 13.1515 41.4808 13.4151 40.7958 13.8678L40.3154 14.1854L39.8149 13.9004C37.0354 12.3172 33.8994 11.4844 30.666 11.4844C20.4573 11.4844 12.1504 19.7912 12.1504 30C12.1504 33.2334 12.9832 36.3694 14.5665 39.149L14.8516 39.6495L14.5339 40.13C14.0813 40.8148 13.8176 41.6324 13.8176 42.5126C13.8176 44.9026 15.7635 46.8485 18.1536 46.8485C19.0335 46.8485 19.8512 46.5849 20.5362 46.1321L21.0167 45.8146L21.5171 46.0996C24.2966 47.6828 27.4326 48.5156 30.666 48.5156C40.8748 48.5156 49.1816 40.2088 49.1816 30C49.1816 26.7666 48.3488 23.6306 46.7655 20.851L46.4805 20.3505ZM22.0643 44.5394L22.295 43.7981C22.4212 43.3926 22.4895 42.9612 22.4895 42.5126C22.4895 40.1226 20.5436 38.1766 18.1536 38.1766C17.705 38.1766 17.2735 38.2449 16.868 38.3711L16.1267 38.6018L15.7619 37.9165C14.4696 35.4889 13.791 32.7828 13.791 30C13.791 20.6943 21.3604 13.125 30.666 13.125C33.4488 13.125 36.1549 13.8036 38.5824 15.0958L39.2677 15.4606L39.037 16.2019C38.9108 16.6074 38.8425 17.0388 38.8425 17.4874C38.8425 19.8774 40.7885 21.8234 43.1785 21.8234C43.6271 21.8234 44.0585 21.7551 44.464 21.6289L45.2053 21.3982L45.5701 22.0835C46.8625 24.5111 47.541 27.2172 47.541 30C47.541 39.3057 39.9717 46.875 30.666 46.875C27.8833 46.875 25.1772 46.1964 22.7496 44.9042L22.0643 44.5394ZM48.4519 17.4874C48.4519 18.558 48.1305 19.5545 47.5802 20.387C49.2442 23.3084 50.1191 26.6044 50.1191 30C50.1191 40.7265 41.3925 49.4531 30.666 49.4531C27.2704 49.4531 23.9744 48.5782 21.0531 46.9143C20.2205 47.4646 19.2241 47.786 18.1536 47.786C15.2458 47.786 12.8801 45.4203 12.8801 42.5126C12.8801 41.442 13.2016 40.4455 13.7519 39.613C12.0878 36.6916 11.2129 33.3956 11.2129 30C11.2129 19.2735 19.9395 10.5469 30.666 10.5469C34.0616 10.5469 37.3577 11.4218 40.2789 13.0857C41.1115 12.5354 42.108 12.214 43.1785 12.214C46.0863 12.214 48.4519 14.5796 48.4519 17.4874ZM23.1902 44.0767C25.4819 45.2966 28.0367 45.9375 30.666 45.9375C39.4539 45.9375 46.6035 38.7879 46.6035 30C46.6035 27.3707 45.9626 24.8159 44.7426 22.524C44.2482 22.6779 43.7228 22.7609 43.1785 22.7609C40.2707 22.7609 37.905 20.3952 37.905 17.4874C37.905 16.9431 37.988 16.4177 38.1419 15.9233C35.8502 14.7034 33.2954 14.0625 30.666 14.0625C21.8781 14.0625 14.7285 21.2121 14.7285 30C14.7285 32.6293 15.3694 35.1841 16.5895 37.476C17.0839 37.3221 17.6092 37.2391 18.1536 37.2391C21.0613 37.2391 23.427 39.6048 23.427 42.5126C23.427 43.0569 23.344 43.5823 23.1902 44.0767Z" fill="#070707"/>
<path d="M30.666 38.9062C35.5848 38.9062 39.5723 34.9188 39.5723 30C39.5723 25.0812 35.5848 21.0938 30.666 21.0938C25.7472 21.0938 21.7598 25.0812 21.7598 30C21.7598 34.9188 25.7472 38.9062 30.666 38.9062Z" fill="#0A9BCD"/>
<path fill-rule="evenodd" clip-rule="evenodd" d="M30.666 37.9688C35.067 37.9688 38.6348 34.401 38.6348 30C38.6348 25.599 35.067 22.0312 30.666 22.0312C26.265 22.0312 22.6973 25.599 22.6973 30C22.6973 34.401 26.265 37.9688 30.666 37.9688ZM39.5723 30C39.5723 34.9188 35.5848 38.9062 30.666 38.9062C25.7472 38.9062 21.7598 34.9188 21.7598 30C21.7598 25.0812 25.7472 21.0938 30.666 21.0938C35.5848 21.0938 39.5723 25.0812 39.5723 30Z" fill="#070707"/>
<path d="M60.666 30C60.666 21.9867 57.5454 14.4531 51.8793 8.78672C46.2129 3.12059 38.6793 0 30.666 0C24.392 0 18.4415 1.89293 13.3684 5.48637C12.5841 5.02324 11.6707 4.75629 10.6957 4.75629C7.78797 4.75629 5.42231 7.12195 5.42231 10.0297C5.42231 11.0047 5.68926 11.9181 6.15238 12.7024C2.55895 17.7755 0.666016 23.726 0.666016 30C0.666016 38.0133 3.7866 45.5469 9.45273 51.2133C15.1191 56.8794 22.6527 60 30.666 60C36.94 60 42.8905 58.1071 47.9636 54.5136C48.7479 54.9768 49.6613 55.2437 50.6363 55.2437C53.5441 55.2437 55.9097 52.878 55.9097 49.9703C55.9097 48.9953 55.6428 48.0819 55.1796 47.2976C58.7731 42.2245 60.666 36.274 60.666 30ZM11.9388 48.7273C6.93648 43.725 4.18164 37.0743 4.18164 30C4.18164 24.5599 5.79344 19.3959 8.85566 14.9713C9.42895 15.1855 10.0487 15.3032 10.6957 15.3032C13.6035 15.3032 15.9692 12.9375 15.9692 10.0297C15.9692 9.38273 15.8514 8.76281 15.6373 8.18965C20.062 5.12731 25.2259 3.51562 30.666 3.51562C37.7403 3.51562 44.391 6.27047 49.3933 11.2727C54.3955 16.275 57.1504 22.9257 57.1504 30C57.1504 35.4401 55.5387 40.6041 52.4764 45.0287C51.9031 44.8145 51.2833 44.6968 50.6363 44.6968C47.7285 44.6968 45.3629 47.0625 45.3629 49.9703C45.3629 50.6173 45.4805 51.2372 45.6947 51.8103C41.2701 54.8727 36.1061 56.4844 30.666 56.4844C23.5918 56.4844 16.941 53.7295 11.9388 48.7273Z" fill="#0A9BCD"/>
<path fill-rule="evenodd" clip-rule="evenodd" d="M13.4147 6.60244L12.8918 6.29364C12.2468 5.91279 11.4973 5.69379 10.6957 5.69379C8.30574 5.69379 6.35981 7.63972 6.35981 10.0297C6.35981 10.8313 6.5788 11.5807 6.95966 12.2258L7.26845 12.7487L6.9174 13.2443C3.43678 18.1581 1.60352 23.9191 1.60352 30C1.60352 37.7646 4.62532 45.0598 10.1156 50.5504C15.6062 56.0407 22.9014 59.0625 30.666 59.0625C36.7469 59.0625 42.5079 57.2292 47.4217 53.7486L47.9173 53.3976L48.4403 53.7064C49.0853 54.0872 49.8347 54.3062 50.6363 54.3062C53.0263 54.3062 54.9722 52.3603 54.9722 49.9703C54.9722 49.1687 54.7532 48.4192 54.3724 47.7742L54.0636 47.2513L54.4146 46.7557C57.8953 41.8419 59.7285 36.0809 59.7285 30C59.7285 22.2354 56.7067 14.9402 51.2164 9.44962C45.7258 3.9593 38.4306 0.9375 30.666 0.9375C24.5851 0.9375 18.8241 2.77077 13.9103 6.25139L13.4147 6.60244ZM51.8793 8.78672C57.5454 14.4531 60.666 21.9867 60.666 30C60.666 36.274 58.7731 42.2245 55.1796 47.2976C55.6428 48.0819 55.9097 48.9953 55.9097 49.9703C55.9097 52.878 53.5441 55.2437 50.6363 55.2437C49.6613 55.2437 48.7479 54.9768 47.9636 54.5136C42.8905 58.1071 36.94 60 30.666 60C22.6527 60 15.1191 56.8794 9.45273 51.2133C3.7866 45.5469 0.666016 38.0133 0.666016 30C0.666016 23.726 2.55895 17.7755 6.15238 12.7024C5.68926 11.9181 5.42231 11.0047 5.42231 10.0297C5.42231 7.12195 7.78797 4.75629 10.6957 4.75629C11.6707 4.75629 12.5841 5.02324 13.3684 5.48637C18.4415 1.89293 24.392 0 30.666 0C38.6793 0 46.2129 3.12059 51.8793 8.78672ZM8.50013 13.8376L9.18382 14.0931C9.65447 14.269 10.1633 14.3657 10.6957 14.3657C13.0857 14.3657 15.0317 12.4197 15.0317 10.0297C15.0317 9.49733 14.9349 8.98838 14.7591 8.5177L14.5037 7.83408L15.1038 7.41877C19.6862 4.24724 25.0365 2.57812 30.666 2.57812C37.9889 2.57812 44.8781 5.43174 50.0562 10.6098C55.2343 15.7879 58.0879 22.6771 58.0879 30C58.0879 35.6295 56.4188 40.9798 53.2472 45.5622L52.8319 46.1624L52.1482 45.9069C51.6776 45.731 51.1688 45.6343 50.6363 45.6343C48.2463 45.6343 46.3004 47.5803 46.3004 49.9703C46.3004 50.5028 46.3971 51.0117 46.5729 51.4821L46.8284 52.1658L46.2283 52.5812C41.6459 55.7528 36.2955 57.4219 30.666 57.4219C23.3431 57.4219 16.4539 54.5683 11.2758 49.3902C6.09776 44.2121 3.24414 37.3229 3.24414 30C3.24414 24.3705 4.91338 19.0202 8.08478 14.4378L8.50013 13.8376ZM4.18164 30C4.18164 37.0743 6.93648 43.725 11.9388 48.7273C16.941 53.7295 23.5918 56.4844 30.666 56.4844C36.1061 56.4844 41.2701 54.8727 45.6947 51.8103C45.4805 51.2372 45.3629 50.6173 45.3629 49.9703C45.3629 47.0625 47.7285 44.6968 50.6363 44.6968C51.2833 44.6968 51.9031 44.8145 52.4764 45.0287C55.5387 40.6041 57.1504 35.4401 57.1504 30C57.1504 22.9257 54.3955 16.275 49.3933 11.2727C44.391 6.27047 37.7403 3.51562 30.666 3.51562C25.2259 3.51562 20.062 5.12731 15.6373 8.18965C15.8514 8.76281 15.9692 9.38273 15.9692 10.0297C15.9692 12.9375 13.6035 15.3032 10.6957 15.3032C10.0487 15.3032 9.42895 15.1855 8.85566 14.9713C5.79344 19.3959 4.18164 24.5599 4.18164 30Z" fill="#070707"/>
</g>
<defs>
<clipPath id="clip0_924_479">
<rect width="60" height="60" fill="white" transform="translate(0.666016)"/>
</clipPath>
</defs>
</svg>
