<svg width="60" height="60" viewBox="0 0 60 60" fill="none" xmlns="http://www.w3.org/2000/svg">
<path d="M26.25 41.6719V56.25H13.125V50.625L5.48813 41.4619C4.365 40.1138 3.75 38.415 3.75 36.66V19.6875C3.75 18.135 5.01 16.875 6.5625 16.875C8.115 16.875 9.375 18.135 9.375 19.6875V26.3512C8.10375 27.645 7.49437 29.2969 7.5 30.9413C7.50563 32.475 8.0625 33.9281 8.85938 34.9144L13.035 40.5C13.6556 41.3288 14.8294 41.4994 15.6581 40.8787C16.4869 40.2581 16.6575 39.0825 16.0369 38.2556L11.82 32.6175C11.0137 31.6125 11.0231 29.9906 12.0694 28.9462C13.0538 27.9619 14.9962 27.915 16.0106 28.9294L24.6394 37.7325C25.6781 38.7919 26.25 40.1906 26.25 41.6719Z" fill="#0A9BCD"/>
<path d="M56.25 19.6875V36.66C56.25 38.415 55.635 40.1138 54.5119 41.4619L46.875 50.625V56.25H33.75V41.6719C33.75 40.1906 34.3219 38.7919 35.3587 37.7325L43.9875 28.9294C44.9981 27.9187 46.9369 27.9525 47.9288 28.9462C48.975 29.9887 48.9862 31.6125 48.1781 32.6175L43.9612 38.2556C43.3406 39.0844 43.5113 40.26 44.34 40.8787C45.1706 41.4994 46.3444 41.3288 46.9631 40.5L51.1388 34.9144C51.9356 33.93 52.4925 32.4769 52.4981 30.9413C52.5038 29.295 51.8944 27.645 50.6231 26.3512V19.6875C50.625 18.135 51.885 16.875 53.4375 16.875C54.99 16.875 56.25 18.135 56.25 19.6875Z" fill="#0A9BCD"/>
<path d="M32.8125 15C32.8125 16.5525 31.5525 17.8125 30 17.8125C28.4475 17.8125 27.1875 16.5525 27.1875 15C27.1875 13.4475 28.4475 12.1875 30 12.1875C31.5525 12.1875 32.8125 13.4475 32.8125 15Z" fill="#0A9BCD"/>
<path d="M42.2288 3.39945C39.7069 1.03883 35.0138 1.57133 30.0282 4.33883C25.0201 1.54695 20.3026 1.03883 17.7732 3.39758C14.6457 6.31695 16.3857 11.3513 18.6732 15.0001C16.382 18.6526 14.6476 23.687 17.7713 26.6007C20.1226 28.8001 23.9307 28.2488 26.9551 27.1069C25.6651 26.2819 24.3938 25.3126 23.1451 24.2494C21.8438 24.4463 20.8313 24.3263 20.3307 23.8576C19.1345 22.7401 20.3457 19.7363 21.0995 18.2832C28.0257 26.4057 38.0007 30.5438 42.2288 26.6007C45.3545 23.6813 43.6163 18.6488 41.327 14.9982C43.6163 11.3476 45.3526 6.3132 42.2288 3.39945ZM39.6695 6.1407C40.8657 7.2582 39.6544 10.262 38.9007 11.7151C37.382 9.93383 35.7713 8.35133 33.6713 6.7407C35.2482 6.06008 38.4207 4.97258 39.6695 6.1407ZM23.237 15.0001C24.6657 13.1776 26.0401 11.8463 27.5963 10.547C26.1863 9.68445 24.9207 9.1182 23.8951 8.79758C22.9876 9.6357 22.1851 10.4438 21.0995 11.7151C20.342 10.2563 19.1363 7.2582 20.3307 6.13883C22.5095 4.1082 31.2188 7.92945 36.7632 15.0001C34.9388 17.327 32.6551 19.4795 30.0001 21.2457C27.5176 19.5807 25.2245 17.5351 23.237 15.0001ZM39.6695 23.8613C38.8126 24.6601 36.5157 24.5026 33.6357 23.2594C35.6251 21.7501 37.1626 20.3232 38.9007 18.2851C39.6582 19.7438 40.8638 22.7419 39.6695 23.8613Z" fill="#0A9BCD"/>
</svg>
