<svg width="60" height="60" viewBox="0 0 60 60" fill="none" xmlns="http://www.w3.org/2000/svg">
<g clip-path="url(#clip0_892_4255)">
<path d="M32.6325 12.6975C35.06 10.425 38.4925 6.7975 39.8675 3.3375C40.505 1.735 39.225 0 37.5 0H22.5C20.775 0 19.495 1.7325 20.1325 3.3375C21.5075 6.7975 24.94 10.425 27.3675 12.6975C13.9225 14.695 2.5 31.545 2.5 45C2.5 53.2725 9.2275 60 17.5 60H42.5C50.7725 60 57.5 53.2725 57.5 45C57.5 31.545 46.0775 14.695 32.6325 12.6975ZM26.61 34.4025L34.215 35.67C37.5675 36.2275 40.0025 39.1025 40.0025 42.5025C40.0025 46.6375 36.6375 50.0025 32.5025 50.0025V52.5025C32.5025 53.8825 31.3825 55.0025 30.0025 55.0025C28.6225 55.0025 27.5025 53.8825 27.5025 52.5025V50.0025H26.8325C24.1625 50.0025 21.675 48.5675 20.3375 46.255C19.6475 45.06 20.055 43.5325 21.25 42.84C22.44 42.1475 23.9725 42.555 24.665 43.7525C25.11 44.5225 25.9425 45.0025 26.8325 45.0025H32.5025C33.88 45.0025 35.0025 43.88 35.0025 42.5025C35.0025 41.5575 34.325 40.7575 33.3925 40.6025L25.7875 39.335C22.435 38.7775 20 35.9025 20 32.5025C20 28.3675 23.365 25.0025 27.5 25.0025V22.5025C27.5 21.1225 28.62 20.0025 30 20.0025C31.38 20.0025 32.5 21.1225 32.5 22.5025V25.0025H33.17C35.8375 25.0025 38.3275 26.44 39.665 28.7525C40.355 29.9475 39.9475 31.475 38.7525 32.1675C37.56 32.86 36.03 32.4525 35.3375 31.255C34.89 30.4825 34.06 30.005 33.17 30.005H27.5C26.1225 30.005 25 31.1275 25 32.505C25 33.45 25.6775 34.25 26.61 34.405V34.4025Z" fill="#0A9BCD"/>
</g>
<defs>
<clipPath id="clip0_892_4255">
<rect width="60" height="60" fill="white"/>
</clipPath>
</defs>
</svg>
