<svg width="60" height="60" viewBox="0 0 60 60" fill="none" xmlns="http://www.w3.org/2000/svg">
<g clip-path="url(#clip0_892_363)">
<path d="M32.8427 2.04021L31.3549 0.558721C30.6066 -0.18624 29.3936 -0.18624 28.6454 0.558721L27.1575 2.04021C23.2262 5.95462 23.2262 12.301 27.1575 16.2154L28.6453 17.6969C29.3935 18.4419 30.6065 18.4419 31.3548 17.6969L32.8426 16.2154C36.774 12.301 36.774 5.95462 32.8427 2.04021Z" fill="#0A9BCD"/>
<path d="M39.3208 44.0731L37.3173 43.433C36.3098 43.1111 35.231 43.6634 34.9077 44.6667L34.2648 46.6616C32.5663 51.9327 35.4807 57.5768 40.7745 59.268L42.7781 59.9081C43.7856 60.23 44.8644 59.6777 45.1877 58.6745L45.8306 56.6796C47.5291 51.4085 44.6147 45.7644 39.3208 44.0731Z" fill="#0A9BCD"/>
<path d="M25.0925 44.6667C24.7692 43.6634 23.6905 43.1111 22.6829 43.433L20.6794 44.0731C15.3855 45.7644 12.471 51.4086 14.1696 56.6797L14.8125 58.6746C15.1358 59.6778 16.2146 60.2301 17.2221 59.9082L19.2257 59.2681C24.5195 57.5769 27.4341 51.9328 25.7354 46.6617L25.0925 44.6667Z" fill="#0A9BCD"/>
<path d="M4.49622 14.3092C5.34361 19.7803 10.4849 23.5316 15.9795 22.6878L18.0592 22.3685C19.1049 22.2079 19.8219 21.2336 19.6606 20.1923L19.3399 18.1216C18.4925 12.6506 13.3513 8.89929 7.85658 9.74304L5.77697 10.0624C4.73119 10.2229 4.01423 11.1972 4.17548 12.2385L4.49622 14.3092Z" fill="#0A9BCD"/>
<path d="M41.9411 22.3685L44.0206 22.6878C49.5153 23.5316 54.6565 19.7804 55.5039 14.3093L55.8247 12.2385C55.9859 11.1973 55.269 10.223 54.2232 10.0624L52.1436 9.74304C46.6489 8.89929 41.5076 12.6505 40.6603 18.1216L40.3395 20.1923C40.1784 21.2336 40.8954 22.2079 41.9411 22.3685Z" fill="#0A9BCD"/>
<path d="M16.5123 37.0971L17.8326 35.4657C18.4966 34.6454 18.3669 33.4445 17.543 32.7833L15.9046 31.4687C11.5757 27.9951 5.23835 28.6734 1.74979 32.9838L0.429559 34.6151C-0.234425 35.4354 -0.104699 36.6363 0.71913 37.2975L2.35753 38.6121C6.68632 42.0858 13.0237 41.4074 16.5123 37.0971Z" fill="#0A9BCD"/>
<path d="M59.5706 34.6152L58.2502 32.9838C54.7617 28.6734 48.4244 27.9951 44.0954 31.4687L42.457 32.7833C41.633 33.4444 41.5034 34.6453 42.1674 35.4657L43.4877 37.0971C46.9763 41.4075 53.3137 42.0858 57.6426 38.6122L59.281 37.2976C60.1048 36.6365 60.2345 35.4355 59.5706 34.6152Z" fill="#0A9BCD"/>
</g>
<defs>
<clipPath id="clip0_892_363">
<rect width="60" height="60" fill="white"/>
</clipPath>
</defs>
</svg>
