<svg width="60" height="60" viewBox="0 0 60 60" fill="none" xmlns="http://www.w3.org/2000/svg">
<path d="M22.6979 17.9109C22.8659 17.5748 23.131 17.2968 23.4588 17.1132C23.7867 16.9295 24.1621 16.8486 24.5365 16.8809C24.9109 16.9133 25.267 17.0574 25.5585 17.2945C25.85 17.5317 26.0635 17.851 26.1713 18.2109L30.437 32.4328L33.9526 25.4109C34.1083 25.0995 34.3477 24.8377 34.6439 24.6546C34.9401 24.4716 35.2814 24.3747 35.6295 24.3747C35.9777 24.3747 36.319 24.4716 36.6152 24.6546C36.9114 24.8377 37.1507 25.0995 37.3065 25.4109L40.5338 31.875H51.8729C53.5611 28.3945 54.4176 24.5693 54.3748 20.7012C54.301 13.4227 48.4616 7.5 41.3577 7.5C35.7221 7.5 31.9827 10.9617 29.9998 13.4766C28.0217 10.9582 24.2776 7.5 18.642 7.5C11.5381 7.5 5.69867 13.4227 5.62484 20.7012C5.59454 23.2146 5.94742 25.7179 6.67133 28.125H17.5909L22.6979 17.9109Z" fill="#0A9BCD"/>
<path d="M37.698 34.5893L35.625 30.4432L31.677 38.3393C31.5212 38.6506 31.2818 38.9124 30.9856 39.0954C30.6894 39.2783 30.3481 39.3752 30 39.3752C29.9477 39.3752 29.8937 39.3729 29.8383 39.3682C29.463 39.337 29.1058 39.1936 28.8131 38.9566C28.5205 38.7195 28.306 38.3999 28.1977 38.0393L23.932 23.8174L20.4164 30.8393C20.2614 31.149 20.0237 31.4098 19.7295 31.5926C19.4354 31.7755 19.0963 31.8733 18.75 31.8752H8.12695C9.2207 34.1635 10.6766 36.4158 12.4945 38.6322C14.6941 41.3135 18.682 45.6002 27.8918 51.8521C28.5129 52.2778 29.2482 52.5056 30.0012 52.5056C30.7541 52.5056 31.4895 52.2778 32.1105 51.8521C41.3203 45.6002 45.3082 41.3135 47.5078 38.6322C48.3001 37.6679 49.0432 36.6643 49.7344 35.6252H39.375C39.0269 35.6252 38.6856 35.5283 38.3894 35.3454C38.0932 35.1624 37.8538 34.9006 37.698 34.5893Z" fill="#0A9BCD"/>
</svg>
