<svg width="60" height="60" viewBox="0 0 60 60" fill="none" xmlns="http://www.w3.org/2000/svg">
<g clip-path="url(#clip0_892_2059)">
<path d="M56.203 26.7305C56.3788 26.0625 56.4844 25.3945 56.4844 24.7266C56.4844 20.5781 53.4491 17.0975 49.5469 16.1836C48.3165 16.5703 47.1915 17.4139 46.5234 18.5742C46.0312 19.418 44.9766 19.6992 44.1328 19.207C43.2891 18.7148 43.0078 17.6602 43.4648 16.8164C44.5195 15.0586 46.1367 13.7578 47.9999 13.0547C46.7695 11.1211 44.8008 9.67957 42.4804 9.15234C41.0391 9.60938 39.8085 10.6992 39.1757 12.1405C38.2267 14.4608 36.0118 15.9375 33.5156 15.9375C32.5311 15.9375 31.7578 15.1639 31.7578 14.1797C31.7578 13.1952 32.5311 12.4219 33.5156 12.4219C34.5703 12.4219 35.5195 11.7891 35.9414 10.8046C36.2228 10.1366 36.6094 9.57422 37.0312 9.0116C35.379 6.79676 32.8125 5.39062 30 5.39062C26.9766 5.39062 24.1991 6.97266 22.6173 9.50379C21.5977 9.11719 20.543 8.90625 19.4531 8.90625C16.3242 8.90625 13.5469 10.5585 12 13.0547C13.8632 13.7578 15.4805 15.0586 16.535 16.8164C16.9921 17.6602 16.7108 18.7147 15.8671 19.207C15.0233 19.6993 13.9688 19.418 13.4764 18.5742C12.8085 17.4139 11.6835 16.5703 10.453 16.1836C6.5509 17.0975 3.51562 20.5781 3.51562 24.7266C3.51562 25.3241 3.62121 25.9218 3.72656 26.4844H22.9688C23.9532 26.4844 24.7266 25.7108 24.7266 24.7266C24.7266 23.7421 25.4999 22.9688 26.4844 22.9688C27.4689 22.9688 28.2422 23.7421 28.2422 24.7266C28.2422 27.6444 25.8868 30 22.9688 30H3.51562C1.58203 30 0 31.5469 0 33.5156C0 35.5195 1.6173 37.0312 3.51562 37.0312H12.4219C13.4064 37.0312 14.1797 37.8046 14.1797 38.7891C14.1797 39.7733 13.4064 40.5469 12.4219 40.5469H7.14844C3.21094 40.5469 0 43.8164 0 47.5781C0 51.4452 3.28137 54.6094 7.14844 54.6094H15.9375C19.5236 54.6094 22.6173 52.4297 23.9532 49.3359H12.4219C11.4374 49.3359 10.6641 48.5624 10.6641 47.5781C10.6641 46.5936 11.4374 45.8203 12.4219 45.8203H33.5156C36.4337 45.8203 38.7891 43.4647 38.7891 40.5469H22.9688C21.9843 40.5469 21.2109 39.7733 21.2109 38.7891C21.2109 37.8046 21.9843 37.0312 22.9688 37.0312H44.0625C45.047 37.0312 45.8203 36.2577 45.8203 35.2734C45.8203 34.2889 45.047 33.5156 44.0625 33.5156H37.0312C36.0468 33.5156 35.2734 32.7421 35.2734 31.7578C35.2734 30.7733 36.0468 30 37.0312 30H44.0625C46.9806 30 49.3359 32.3554 49.3359 35.2734C49.3359 35.9062 49.1954 36.4686 49.0194 37.0312H54.7266C57.7152 37.0312 60 34.5807 60 31.7578C60 29.3672 58.3827 27.3281 56.203 26.7305Z" fill="#0A9BCD"/>
</g>
<defs>
<clipPath id="clip0_892_2059">
<rect width="60" height="60" fill="white"/>
</clipPath>
</defs>
</svg>
