<svg width="23" height="26" viewBox="0 0 23 26" fill="none" xmlns="http://www.w3.org/2000/svg">
<g clip-path="url(#clip0_307_621)">
<path d="M2.99573 5.20756C3.32569 4.87259 3.32162 4.33355 2.98666 4.00359C2.65168 3.67363 2.11265 3.67768 1.78268 4.01266L2.99573 5.20756ZM7.02285 3.14841L6.41632 2.55097C6.08987 2.88238 6.08988 3.41445 6.41633 3.74586L7.02285 3.14841ZM8.40332 5.76297C8.73328 6.09795 9.27232 6.102 9.60729 5.77205C9.94225 5.44208 9.94631 4.90305 9.61635 4.56808L8.40332 5.76297ZM9.61636 1.72859C9.94632 1.3936 9.94225 0.854562 9.60727 0.524609C9.27229 0.194655 8.73325 0.198731 8.40329 0.533712L9.61636 1.72859ZM11.1094 22.9826C8.67695 22.9826 6.93956 22.9807 5.61947 22.8006C4.32521 22.624 3.55977 22.2903 2.99573 21.7177L1.78268 22.9126C2.71476 23.8587 3.90141 24.2846 5.38921 24.4877C6.85119 24.6872 8.7258 24.6853 11.1094 24.6853V22.9826ZM0.0416876 13.4626C0.0416876 15.8834 0.0399303 17.7834 0.23607 19.2646C0.435289 20.7686 0.852347 21.968 1.78268 22.9126L2.99573 21.7177C2.42991 21.1432 2.09887 20.3609 1.92405 19.041C1.74617 17.6977 1.74442 15.9308 1.74442 13.4626H0.0416876ZM20.4744 13.4626C20.4744 15.9308 20.4726 17.6977 20.2947 19.041C20.1199 20.3609 19.789 21.1432 19.223 21.7177L20.4361 22.9126C21.3665 21.968 21.7835 20.7686 21.9827 19.2646C22.1789 17.7834 22.1771 15.8834 22.1771 13.4626H20.4744ZM11.1094 24.6853C13.4929 24.6853 15.3675 24.6872 16.8296 24.4877C18.3174 24.2846 19.504 23.8587 20.4361 22.9126L19.223 21.7177C18.659 22.2903 17.8936 22.624 16.5993 22.8006C15.2793 22.9807 13.5418 22.9826 11.1094 22.9826V24.6853ZM11.1094 3.94262C13.5418 3.94262 15.2793 3.94448 16.5993 4.12466C17.8936 4.30131 18.659 4.63494 19.223 5.20756L20.4361 4.01266C19.504 3.06642 18.3174 2.64063 16.8296 2.43757C15.3675 2.23804 13.4929 2.23989 11.1094 2.23989V3.94262ZM22.1771 13.4626C22.1771 11.0418 22.1789 9.14176 21.9827 7.66073C21.7835 6.15651 21.3665 4.9571 20.4361 4.01266L19.223 5.20756C19.789 5.78196 20.1199 6.56425 20.2947 7.88428C20.4726 9.22754 20.4744 10.9944 20.4744 13.4626H22.1771ZM1.74442 13.4626C1.74442 10.9944 1.74617 9.22754 1.92405 7.88428C2.09887 6.56425 2.42991 5.78196 2.99573 5.20756L1.78268 4.01266C0.852347 4.9571 0.435289 6.15651 0.23607 7.66073C0.0399303 9.14176 0.0416876 11.0418 0.0416876 13.4626H1.74442ZM11.1094 2.23989C9.5029 2.23989 8.13533 2.23966 6.97982 2.29812L7.06588 3.99868C8.16902 3.94286 9.4883 3.94262 11.1094 3.94262V2.23989ZM6.41633 3.74586L8.40332 5.76297L9.61635 4.56808L7.62938 2.55094L6.41633 3.74586ZM7.6294 3.74584L9.61636 1.72859L8.40329 0.533712L6.41632 2.55097L7.6294 3.74584Z" fill="white"/>
<path d="M7.13501 14.1892L9.4053 16.4594L15.081 10.7837" stroke="white" stroke-width="1.30208" stroke-linecap="round" stroke-linejoin="round"/>
</g>
<defs>
<clipPath id="clip0_307_621">
<rect width="22.9167" height="25" fill="white" transform="translate(0.041687 0.279785)"/>
</clipPath>
</defs>
</svg>
