<svg width="25" height="26" viewBox="0 0 25 26" fill="none" xmlns="http://www.w3.org/2000/svg">
<g clip-path="url(#clip0_307_635)">
<g clip-path="url(#clip1_307_635)">
<path fill-rule="evenodd" clip-rule="evenodd" d="M12.5 0.279785C11.7968 0.279785 11.1493 0.454541 10.4404 0.747716C9.75584 1.03081 8.96083 1.44806 7.9708 1.96761L5.56673 3.22922C4.35165 3.86684 3.37925 4.37713 2.62845 4.87851C1.85062 5.39797 1.25153 5.94491 0.815255 6.68581C0.380442 7.42422 0.184838 8.22378 0.091035 9.17597C-1.13791e-05 10.1002 -1.13694e-05 11.2369 2.58429e-07 12.6665V12.8931C-1.13694e-05 14.3226 -1.13791e-05 15.4593 0.091035 16.3836C0.184838 17.3358 0.380442 18.1354 0.815255 18.8738C1.25153 19.6147 1.85062 20.1616 2.62845 20.681C3.37925 21.1825 4.35164 21.6927 5.5667 22.3304L7.97069 23.5918C8.96077 24.1115 9.75584 24.5288 10.4404 24.8118C11.1493 25.105 11.7968 25.2798 12.5 25.2798C13.2032 25.2798 13.8506 25.105 14.5595 24.8118C15.2441 24.5288 16.0391 24.1115 17.0291 23.5919L19.4333 22.3304C20.6483 21.6927 21.6207 21.1825 22.3715 20.681C23.1493 20.1616 23.7484 19.6147 24.1847 18.8738C24.6195 18.1354 24.8151 17.3358 24.909 16.3836C25 15.4593 25 14.3227 25 12.8932V12.6664C25 11.2369 25 10.1002 24.909 9.17597C24.8151 8.22378 24.6195 7.42422 24.1847 6.68581C23.7484 5.94491 23.1493 5.39797 22.3715 4.87851C21.6207 4.37713 20.6483 3.86684 19.4333 3.22921L17.0292 1.96763C16.0392 1.44807 15.2441 1.03082 14.5595 0.747716C13.8506 0.454541 13.2032 0.279785 12.5 0.279785ZM8.7451 3.53105C9.77968 2.98813 10.5047 2.60863 11.107 2.3595C11.6933 2.11705 12.1051 2.02397 12.5 2.02397C12.8948 2.02397 13.3067 2.11705 13.893 2.3595C14.4953 2.60863 15.2202 2.98813 16.2549 3.53105L18.5805 4.75144C19.8476 5.41639 20.7377 5.88481 21.4028 6.32899C21.7309 6.54814 21.9889 6.75163 22.1969 6.95623L18.3241 8.89267L8.44063 3.69082L8.7451 3.53105ZM6.62168 4.64535L6.41952 4.75144C5.15244 5.41638 4.26224 5.88481 3.59711 6.32899C3.26895 6.54814 3.01111 6.75163 2.80294 6.95623L12.5 11.8048L16.4036 9.85291L6.86125 4.83059C6.76855 4.7818 6.68826 4.71866 6.62168 4.64535ZM1.96242 8.48604C1.90369 8.73473 1.85931 9.01715 1.82681 9.34697C1.74516 10.1758 1.74418 11.2268 1.74418 12.7117V12.8479C1.74418 14.3329 1.74516 15.3838 1.82681 16.2126C1.90667 17.0233 2.05839 17.5475 2.31822 17.9888C2.57659 18.4275 2.95031 18.7986 3.59711 19.2306C4.26224 19.6748 5.15244 20.1432 6.41952 20.8082L8.7451 22.0285C9.77968 22.5714 10.5047 22.9509 11.107 23.2C11.2972 23.2788 11.469 23.3416 11.628 23.3908V13.3188L1.96242 8.48604ZM13.3722 23.3908C13.5309 23.3416 13.7028 23.2788 13.893 23.2C14.4953 22.9509 15.2202 22.5714 16.2549 22.0285L18.5805 20.8082C19.8476 20.1432 20.7377 19.6748 21.4028 19.2306C22.0497 18.7986 22.4234 18.4275 22.6817 17.9888C22.9415 17.5475 23.0933 17.0233 23.1732 16.2126C23.2548 15.3838 23.2558 14.3329 23.2558 12.8479V12.7117C23.2558 11.2268 23.2548 10.1758 23.1732 9.34697C23.1407 9.01714 23.0963 8.73473 23.0376 8.48601L19.186 10.4118V13.9426C19.186 14.4242 18.7956 14.8147 18.314 14.8147C17.8323 14.8147 17.4418 14.4242 17.4418 13.9426V11.2839L13.3722 13.3188V23.3908Z" fill="white"/>
</g>
</g>
<defs>
<clipPath id="clip0_307_635">
<rect width="25" height="25" fill="white" transform="translate(0 0.279785)"/>
</clipPath>
<clipPath id="clip1_307_635">
<rect width="25" height="25" fill="white" transform="translate(0 0.279785)"/>
</clipPath>
</defs>
</svg>
