<svg width="25" height="26" viewBox="0 0 25 26" fill="none" xmlns="http://www.w3.org/2000/svg">
<g clip-path="url(#clip0_307_627)">
<g clip-path="url(#clip1_307_627)">
<path d="M11.9357 24.2796L12.2374 23.7699L10.7364 22.8815L10.4347 23.3911L11.9357 24.2796ZM8.11137 23.7699L8.41303 24.2796L9.91399 23.3911L9.61233 22.8815L8.11137 23.7699ZM10.4347 23.3911C10.3819 23.4805 10.2898 23.5327 10.1744 23.5327C10.059 23.5327 9.96678 23.4805 9.91399 23.3911L8.41303 24.2796C9.20017 25.6095 11.1486 25.6095 11.9357 24.2796L10.4347 23.3911ZM8.77904 6.67241H11.5698V4.92822H8.77904V6.67241ZM18.6046 13.7073V14.6376H20.3487V13.7073H18.6046ZM1.74418 14.6376V13.7073H3.66172e-07V14.6376H1.74418ZM3.66172e-07 14.6376C3.66172e-07 15.7092 -0.000460122 16.5565 0.0462839 17.2419C0.0935721 17.9348 0.192055 18.5255 0.420432 19.0768L2.03185 18.4094C1.90617 18.1059 1.82765 17.7273 1.78641 17.1231C1.74465 16.511 1.74418 15.7331 1.74418 14.6376H3.66172e-07ZM5.88753 20.725C4.96629 20.6956 4.46564 20.6156 4.07705 20.4545L3.4096 22.066C4.10361 22.3534 4.86911 22.4375 5.83176 22.4684L5.88753 20.725ZM0.420432 19.0768C0.981011 20.43 2.05624 21.5054 3.4096 22.066L4.07705 20.4545C3.15109 20.0709 2.41539 19.3352 2.03185 18.4094L0.420432 19.0768ZM18.6046 14.6376C18.6046 15.7331 18.6041 16.511 18.5624 17.1231C18.5211 17.7273 18.4425 18.1059 18.317 18.4094L19.9283 19.0768C20.1567 18.5255 20.2552 17.9348 20.3025 17.2419C20.3492 16.5565 20.3487 15.7092 20.3487 14.6376H18.6046ZM14.5171 22.4684C15.4797 22.4375 16.2451 22.3534 16.9392 22.066L16.2716 20.4545C15.8832 20.6156 15.3824 20.6956 14.4612 20.725L14.5171 22.4684ZM18.317 18.4094C17.9334 19.3352 17.1977 20.0709 16.2716 20.4545L16.9392 22.066C18.2925 21.5054 19.3678 20.43 19.9283 19.0768L18.317 18.4094ZM11.5698 6.67241C13.1091 6.67241 14.2025 6.67333 15.0527 6.75416C15.8899 6.83377 16.4009 6.98467 16.8001 7.22929L17.7114 5.74214C16.9921 5.30135 16.1826 5.10957 15.2177 5.01782C14.2659 4.92731 13.0753 4.92822 11.5698 4.92822V6.67241ZM20.3487 13.7073C20.3487 12.2017 20.3497 11.0112 20.2591 10.0593C20.1675 9.09434 19.9757 8.28488 19.5348 7.56559L18.0476 8.47692C18.2923 8.8761 18.4433 9.38712 18.5227 10.2244C18.6037 11.0746 18.6046 12.1679 18.6046 13.7073H20.3487ZM16.8001 7.22929C17.3086 7.5409 17.7361 7.96843 18.0476 8.47692L19.5348 7.56559C19.0796 6.82241 18.4546 6.19756 17.7114 5.74214L16.8001 7.22929ZM8.77904 4.92822C7.27341 4.92822 6.08295 4.92731 5.13101 5.01782C4.16612 5.10957 3.35664 5.30135 2.63736 5.74214L3.5487 7.22929C3.94786 6.98467 4.45888 6.83377 5.29611 6.75416C6.14633 6.67333 7.23964 6.67241 8.77904 6.67241V4.92822ZM1.74418 13.7073C1.74418 12.1679 1.7451 11.0746 1.82595 10.2244C1.90555 9.38712 2.05646 8.8761 2.30107 8.47692L0.813904 7.56559C0.373129 8.28488 0.181339 9.09434 0.0895954 10.0593C-0.000920487 11.0112 3.66172e-07 12.2017 3.66172e-07 13.7073H1.74418ZM2.63736 5.74214C1.89418 6.19756 1.26933 6.82241 0.813904 7.56559L2.30107 8.47692C2.61267 7.96843 3.04021 7.5409 3.5487 7.22929L2.63736 5.74214ZM9.61233 22.8815C9.37883 22.4871 9.17403 22.1393 8.97542 21.8659C8.76645 21.5782 8.52704 21.3182 8.19558 21.1222L7.30757 22.6233C7.36117 22.6551 7.43517 22.7133 7.56422 22.8909C7.7036 23.0827 7.86139 23.3476 8.11137 23.7699L9.61233 22.8815ZM5.83176 22.4684C6.34972 22.485 6.68083 22.4964 6.93234 22.527C7.17011 22.556 7.25935 22.5948 7.30757 22.6233L8.19558 21.1222C7.85874 20.923 7.50428 20.8397 7.14352 20.7957C6.79647 20.7534 6.37414 20.7407 5.88753 20.725L5.83176 22.4684ZM12.2374 23.7699C12.4873 23.3476 12.6451 23.0827 12.7846 22.8909C12.9135 22.7133 12.9876 22.6551 13.0412 22.6233L12.1532 21.1222C11.8217 21.3182 11.5823 21.5782 11.3734 21.8659C11.1747 22.1393 10.9699 22.4871 10.7364 22.8815L12.2374 23.7699ZM14.4612 20.725C13.9747 20.7407 13.5523 20.7534 13.2052 20.7957C12.8445 20.8397 12.49 20.923 12.1532 21.1222L13.0412 22.6233C13.0895 22.5948 13.1786 22.556 13.4164 22.527C13.6679 22.4964 13.999 22.485 14.5171 22.4684L14.4612 20.725Z" fill="white"/>
<path d="M14.099 2.02397H16.7153V0.279786H14.099V2.02397ZM23.256 8.56466V9.43675H25.0002V8.56466H23.256ZM23.256 9.43675C23.256 10.4646 23.2555 11.1917 23.2165 11.7633C23.1782 12.327 23.1051 12.6752 22.9904 12.952L24.602 13.6195C24.8192 13.0948 24.9121 12.5345 24.9566 11.882C25.0008 11.2373 25.0002 10.4407 25.0002 9.43675H23.256ZM22.9904 12.952C22.6364 13.8067 21.9574 14.4859 21.1025 14.8398L21.7701 16.4513C23.0522 15.9202 24.0709 14.9015 24.602 13.6195L22.9904 12.952ZM16.7153 2.02397C18.1597 2.02397 19.1816 2.02488 19.9754 2.10037C20.7564 2.17462 21.2261 2.31481 21.5903 2.53801L22.5016 1.05085C21.8174 0.631496 21.0491 0.450408 20.1404 0.364023C19.2449 0.278865 18.1259 0.279786 16.7153 0.279786V2.02397ZM25.0002 8.56466C25.0002 7.15419 25.0012 6.03509 24.916 5.13947C24.8296 4.23088 24.6486 3.46268 24.2291 2.77834L22.742 3.68967C22.9652 4.05389 23.1054 4.52364 23.1797 5.30456C23.2551 6.09847 23.256 7.12042 23.256 8.56466H25.0002ZM21.5903 2.53801C22.0598 2.82564 22.4543 3.2203 22.742 3.68967L24.2291 2.77834C23.7976 2.07426 23.2058 1.48231 22.5016 1.05085L21.5903 2.53801ZM14.099 0.279786C12.6886 0.279786 11.5695 0.278865 10.6739 0.364023C9.76531 0.450408 8.99711 0.631496 8.31277 1.05085L9.2241 2.53801C9.58833 2.31481 10.0581 2.17462 10.839 2.10037C11.6329 2.02488 12.6549 2.02397 14.099 2.02397V0.279786ZM8.31277 1.05085C7.6087 1.48231 7.01674 2.07426 6.58529 2.77834L8.07246 3.68967C8.36009 3.2203 8.75472 2.82564 9.2241 2.53801L8.31277 1.05085ZM7.5959 5.84832C7.65399 4.7316 7.79923 4.13551 8.07246 3.68967L6.58529 2.77834C6.077 3.6078 5.91601 4.56718 5.85406 5.75772L7.5959 5.84832ZM19.506 16.8319C20.3975 16.8023 21.1158 16.7223 21.7701 16.4513L21.1025 14.8398C20.7515 14.9853 20.2954 15.0604 19.448 15.0886L19.506 16.8319Z" fill="white"/>
<path d="M6.11517 13.938H6.12563M10.1741 13.938H10.1846M14.2333 13.938H14.2439" stroke="white" stroke-width="1.8116" stroke-linecap="round" stroke-linejoin="round"/>
</g>
</g>
<defs>
<clipPath id="clip0_307_627">
<rect width="25" height="25" fill="white" transform="translate(0 0.279785)"/>
</clipPath>
<clipPath id="clip1_307_627">
<rect width="25" height="25" fill="white" transform="translate(0 0.279785)"/>
</clipPath>
</defs>
</svg>
